<?xml version="1.0" standalone="no"?>
<!DOCTYPE svg PUBLIC "-//W3C//DTD SVG 1.1//EN" "http://www.w3.org/Graphics/SVG/1.1/DTD/svg11.dtd" >
<svg xmlns="http://www.w3.org/2000/svg" xmlns:xlink="http://www.w3.org/1999/xlink" version="1.1">
<metadata>
Created by FontForge 20190801 at Wed Dec  2 16:11:26 2020
 By Jimmy Wärting
Typeface (Kong Font). 2020. All Rights Reserved (kongvector@gmail.com).
</metadata>
<defs>
<font id="KissBoom" horiz-adv-x="345" >
  <font-face 
    font-family="Kiss Boom"
    font-weight="400"
    font-stretch="normal"
    units-per-em="1000"
    panose-1="2 0 5 3 0 0 0 0 0 0"
    ascent="801"
    descent="-199"
    x-height="317"
    cap-height="456"
    bbox="-331.095 -122.446 1243.97 631.084"
    underline-thickness="50"
    underline-position="-125"
    unicode-range="U+0020-E017"
  />
<missing-glyph horiz-adv-x="500" 
d="M50 0v500h400v-500h-400zM100 50h300v400h-300v-400z" />
    <glyph glyph-name="ee" unicode="ee" horiz-adv-x="388" 
d="M266 331c-15 -1 -30 -5 -42 -12c-36 -22 -66 -79 -57 -148c-51 -72 -123 -38 -116 25c47 -9 114 18 105 74c-9 61 -98 87 -149 1c-37 -64 -33 -160 53 -176c50 -10 86 16 111 52c14 -57 51 -112 111 -109c86 4 80 121 130 165c7 6 -3 17 -10 10c-29 -27 -30 -65 -53 -98
c-18 -26 -48 -66 -84 -43c-23 15 -25 42 -28 66c-3 23 -6 45 -3 66c86 7 113 76 78 111c-11 11 -28 16 -46 16zM290 285c24 1 20 -52 -53 -61c9 30 34 54 43 58c4 2 7 3 10 3zM116 272c18 0 24 -20 13 -39c-8 -13 -39 -28 -74 -22c8 27 30 61 61 61z" />
    <glyph glyph-name="ff" unicode="ff" horiz-adv-x="360" 
d="M257 450c-82 -1 -116 -194 -116 -278c-35 -16 -74 -24 -112 -21c-4 2 -7 4 -10 5v25c21 0 50 28 61 38c55 54 91 169 40 211c-74 61 -184 -104 -143 -316c25 -133 94 -188 123 -141c21 35 7 116 -52 165c32 0 63 7 93 19c2 -54 6 -112 29 -162c51 -106 134 -82 100 71
c-7 28 -18 61 -39 82c57 -2 105 2 135 60c2 5 -7 9 -9 4c-31 -50 -88 -55 -150 -49c-2 1 -5 2 -8 3l3 27c136 103 126 255 57 257h-2zM293 391c18 -59 -40 -139 -89 -179c3 20 63 281 89 179zM100 410c8 0 16 -5 23 -18c26 -45 -8 -123 -52 -164c-5 -5 -36 -33 -51 -35
c2 47 8 95 23 140c6 20 31 77 57 77zM198 152c79 -17 79 -252 24 -187c-26 31 -26 143 -24 187zM19 140c40 -24 62 -59 70 -97c2 -11 8 -74 -22 -64s-42 79 -45 110c-2 20 -3 51 -3 51z" />
    <glyph glyph-name="gg" unicode="gg" horiz-adv-x="525" 
d="M94 336c-13 0 -26 -3 -37 -10c-57 -31 -71 -108 -61 -166c8 -47 47 -94 95 -59c41 30 63 84 76 133c1 1 2 1 3 2c0 -37 4 -74 5 -110c-17 -10 -35 -19 -51 -30c-35 -24 -96 -95 -44 -135c54 -42 108 33 122 78c9 32 15 67 19 101c56 43 28 51 43 8c19 -53 96 -79 142 16
c0 -20 0 -41 -1 -61c-27 -8 -55 -14 -80 -28c-50 -28 -108 -112 -43 -157c67 -46 139 21 162 82c13 34 17 72 19 109c45 23 71 48 94 97c3 7 -7 13 -10 6c-20 -42 -44 -66 -83 -88c1 61 3 129 -20 180c-4 8 -13 10 -21 7c-40 58 -158 -17 -165 -118c-12 -17 -24 -28 -36 -37
c5 45 8 97 -5 142v-1c-9 17 -37 30 -42 1c-1 -3 -2 -6 -2 -10c-13 30 -46 48 -79 48zM389 276c5 0 10 -2 15 -5c6 -3 1 7 2 -50c-26 -97 -87 -111 -95 -70c-6 35 24 89 53 113c9 7 17 12 25 12zM98 276c21 -1 37 -28 56 -40c-8 -26 -18 -52 -32 -76c-47 -78 -93 -68 -90 5
c2 35 17 79 45 102c8 6 14 9 21 9zM175 112c-4 -172 -114 -163 -98 -95c11 47 56 72 98 95zM405 88c-2 -49 0 -104 -32 -138c-26 -27 -80 -33 -100 5c-22 43 26 90 59 108c23 12 48 19 73 25z" />
    <glyph glyph-name="pp" unicode="pp" horiz-adv-x="564" 
d="M55 352c-4 0 -8 -1 -12 -2c-32 -14 -39 -57 -43 -87c-14 -86 -5 -147 13 -210c8 -24 15 -71 40 -82c6 -3 12 -2 15 4c12 19 2 49 -2 72c0 11 1 22 1 33c10 -3 20 -4 31 -4c61 -6 134 28 181 114c-8 -82 -7 -156 16 -240c6 -19 34 -13 34 5c1 0 6 90 6 91c1 3 1 6 4 22
c26 -18 61 -17 90 -5c136 57 108 304 20 273c-32 -11 -50 -44 -62 -73c-30 -72 -45 -123 -45 -121c7 73 6 74 20 127c2 7 3 22 7 30c3 3 6 6 7 10c8 47 -74 63 -93 -81c-23 -57 -57 -105 -114 -129c59 43 98 155 54 221c-19 28 -55 30 -80 11c-44 -34 -71 -114 -82 -168
c0 27 0 55 4 82c4 30 21 60 13 90c-3 12 -13 17 -23 17zM442 310c40 0 8 -127 -1 -145c-11 -22 -25 -51 -46 -65c-17 -10 -36 -10 -49 -1c9 40 25 94 43 137c8 21 23 67 48 73c2 1 4 1 5 1zM159 303c3 0 5 -1 8 -2c29 -18 7 -192 -97 -182c13 115 60 185 89 184z" />
    <glyph glyph-name="oo" unicode="oo" horiz-adv-x="393" 
d="M93 376c-53 1 -91 -73 -74 -123c-23 -34 -31 -80 -20 -118c11 -34 47 -64 84 -56c43 10 86 50 95 127c11 2 20 4 31 7c-35 -106 56 -175 117 -113c22 21 31 50 35 79c24 2 48 9 69 21c10 5 1 21 -8 15c-18 -12 -39 -18 -59 -20c4 59 -13 164 -89 165
c-64 1 -71 -70 -49 -115c-2 -2 -4 -5 -6 -8c-20 -7 -23 -8 -39 -11c2 55 -13 116 -56 140c-11 6 -21 9 -31 10zM92 360c24 1 47 -16 61 -60c7 -22 11 -50 10 -77c-27 -5 -60 -10 -86 -2c4 7 7 13 11 18c49 0 11 101 -56 29c-10 48 24 92 60 92zM271 342c37 0 83 -52 71 -147
c-22 2 -44 9 -63 21c4 12 9 24 10 36c1 17 -15 24 -28 20v2c-8 -3 -16 -8 -23 -14c-9 17 -12 35 -5 54c8 19 22 28 38 28zM71 205c29 -10 61 -7 91 -2c-4 -37 -20 -72 -54 -87c-57 -26 -55 39 -37 89zM272 197c21 -11 44 -18 68 -19c-6 -28 -19 -60 -46 -60
c-31 -1 -31 50 -22 79z" />
    <glyph glyph-name="ov" unicode="ov" horiz-adv-x="416" 
d="M328 385c-11 -1 -22 -7 -30 -18c-34 -46 6 -126 54 -161c-7 -29 -27 -76 -54 -88c-50 -20 -53 65 -51 118c0 25 7 51 1 74c-9 33 -69 15 -61 -98c-9 -4 -18 -7 -28 -10c10 57 -2 120 -52 150c-62 39 -128 -29 -105 -97c-32 -64 -21 -158 46 -169c53 -9 93 44 107 98
c12 2 23 5 34 9c14 -82 72 -116 111 -100c34 13 52 69 61 107c26 -15 55 -19 83 -1c9 6 1 21 -9 15c-24 -16 -48 -11 -70 3c7 38 14 133 -17 160c-7 5 -13 8 -20 8zM329 369c9 0 18 -6 23 -20c11 -41 11 -84 3 -125c-34 28 -63 84 -52 123c3 13 15 22 26 22zM69 349
c21 0 44 -13 61 -44c16 -28 21 -69 14 -106c-34 -5 -68 -1 -95 19c3 6 9 21 13 26c21 3 28 37 3 50c-20 10 -38 -2 -52 -21c-8 43 22 76 56 76zM43 202c27 -17 62 -23 96 -20c-29 -96 -135 -99 -96 20z" />
    <glyph glyph-name="ou" unicode="ou" horiz-adv-x="450" 
d="M76 364c-46 1 -68 -49 -62 -91c-48 -42 -39 -145 18 -174c66 -34 105 54 114 106c40 14 19 30 32 -24c8 -33 34 -85 74 -86c36 -1 49 48 56 76c19 -93 80 -124 121 -70c12 17 19 37 26 56c8 21 9 28 16 49c2 8 -7 11 -11 3c-8 -20 -10 -22 -19 -42
c-7 -17 -43 -87 -56 -42c-27 95 -13 171 -13 178c0 3 0 27 -3 13c2 11 -3 25 -16 28c-54 10 -55 -69 -51 -124c-4 -15 -22 -77 -37 -80c-35 -8 -23 155 -27 175c-3 17 -25 20 -36 9c-21 -19 -29 -50 -30 -81c-8 -6 -16 -11 -24 -15c2 50 -12 131 -67 136h-5zM77 349
c38 -1 61 -73 55 -128c-32 -11 -65 -1 -86 20c3 12 3 23 3 22c0 11 -11 18 -21 18c-3 23 5 47 26 60c8 6 16 8 23 8zM41 223c23 -21 57 -29 88 -23c-7 -34 -26 -80 -62 -79c-33 2 -36 47 -34 72c1 10 4 20 8 30z" />
    <glyph glyph-name="os" unicode="os" horiz-adv-x="362" 
d="M92 351c-39 -1 -66 -51 -64 -91c-27 -28 -46 -75 -33 -114c25 -74 114 -44 142 9c6 10 11 23 15 38c15 5 29 14 43 24c0 -38 15 -62 35 -91c-56 -37 -90 -120 -30 -151c63 -32 92 62 93 106c0 21 -4 41 -10 61c45 23 80 23 112 63c4 7 -7 14 -11 7
c-28 -37 -61 -39 -105 -60c-13 40 -24 62 -16 88c3 12 18 41 33 38c8 -1 17 3 19 11c8 28 -21 45 -46 41c-36 -7 -65 -49 -72 -86c-12 -11 -26 -21 -40 -28c8 49 1 106 -39 128c-9 4 -18 7 -26 7zM94 332c25 0 49 -25 49 -85c0 -13 -2 -26 -4 -39c-26 -7 -49 -3 -67 8
c4 5 7 9 11 13c6 7 -2 2 2 5s6 1 12 7c18 17 -7 65 -54 31c1 37 26 61 51 60zM63 201c21 -14 45 -18 69 -14c-29 -79 -111 -72 -69 14zM236 117c9 -13 16 -26 21 -41c7 -21 4 -48 -8 -67c-40 -58 -121 35 -13 108z" />
    <glyph glyph-name="oss" unicode="oss" horiz-adv-x="462" 
d="M285 362c-28 1 -61 -32 -71 -52c-8 -17 -12 -35 -13 -53c-12 -4 -27 -8 -43 -11c9 103 -38 132 -74 102c-52 1 -86 -76 -85 -129c1 -41 19 -96 66 -106c41 -9 62 26 75 59c8 18 13 38 16 58c16 1 31 5 45 10c3 -27 13 -52 30 -72c-111 -82 -52 -170 26 -139
c30 12 53 39 58 71c5 30 -8 60 -22 87c13 7 27 15 40 23c6 -21 17 -39 28 -60c24 -44 16 -14 3 -61c-25 -86 30 -110 57 -68c23 37 9 86 -3 126c32 34 57 41 87 57c6 6 -3 15 -9 9c-19 -12 -54 -21 -84 -47c-6 23 -18 63 -21 85c100 91 -18 153 -55 65
c-13 -29 -14 -59 -8 -90c-18 -11 -24 -14 -43 -25c-14 27 -23 49 -11 78c23 19 49 46 36 67c-7 12 -16 16 -25 16zM110 341c37 -1 36 -58 32 -96c-27 0 -53 7 -63 30c5 8 15 21 17 17c4 -13 23 -18 30 -4c11 22 1 43 -16 53zM405 320c1 0 1 -2 3 -7c4 -10 -1 -16 -6 -25
c-4 -5 -8 -10 -12 -14c1 10 4 33 10 40c3 4 4 6 5 6zM71 261c15 -21 42 -30 69 -31c-16 -91 -65 -104 -82 -67c-10 21 -1 51 4 73c3 8 5 17 9 25zM242 155c12 -14 24 -28 28 -46c5 -29 -30 -63 -60 -59c-50 7 -12 66 7 84c8 8 16 14 25 21zM389 97c4 -9 11 -29 10 -43
c-3 -23 -15 -19 -16 1c-1 12 1 25 6 42z" />
    <glyph glyph-name="rr" unicode="rr" horiz-adv-x="457" 
d="M248 346c-3 0 -5 -1 -8 -2c-20 -10 -34 -24 -44 -41c-34 -14 -42 6 -66 14c-54 16 -69 -56 -80 -111c-4 33 -5 65 3 99c8 28 -30 53 -51 30c-46 -51 -18 -177 18 -236c11 -17 41 -11 40 11c0 13 -1 26 -3 39c4 26 14 118 41 129c12 5 12 2 22 -4c22 -14 39 -21 64 -11
c-8 -51 11 -112 38 -149c9 -13 28 -7 28 7c-2 34 -7 32 18 102c6 16 27 67 36 73c9 5 10 1 18 -3c21 -11 36 -23 61 -20c20 2 37 12 44 32c3 10 -8 19 -17 17c-43 -10 -53 8 -76 12c-20 4 -36 -9 -46 -26c-49 -83 -44 -140 -45 -79c0 47 21 98 18 98c2 9 -3 19 -13 19z" />
    <glyph glyph-name="ss" unicode="ss" horiz-adv-x="310" 
d="M245 355c-19 0 -41 -12 -57 -38c-18 -29 -20 -65 -12 -99c-32 -15 -65 -28 -94 -48c-17 24 -37 54 -33 85c1 10 7 29 18 31c17 3 28 -28 34 -38c10 -17 38 -10 37 10c0 50 -34 101 -90 82c-45 -15 -62 -67 -52 -111c8 -32 31 -60 56 -85c-25 -27 -47 -68 -29 -102
c17 -34 68 -33 94 -12c45 36 -6 96 -29 131c27 20 59 33 90 47c9 -30 20 -48 36 -69c-43 -41 -41 -95 -11 -121c31 -27 74 -11 80 29c3 23 -5 38 -25 110c32 20 68 29 94 47c6 5 -2 14 -8 9c-25 -19 -59 -28 -89 -45c-7 25 -14 53 -15 77c76 60 47 111 5 110zM260 314
c21 0 -5 -39 -5 -39c-5 -5 -10 -11 -15 -16c0 13 2 26 7 37c1 2 6 17 11 18h2zM60 136c13 -13 25 -24 37 -36c53 -53 -10 -83 -45 -67c-44 20 -15 76 8 103zM223 128c83 -107 3 -107 -11 -92c-19 21 -20 59 11 92z" />
    <glyph glyph-name="t_t" unicode="tt" horiz-adv-x="294" 
d="M-50 477c-9 0 -18 -4 -25 -15l-6 -9c-60 11 -130 17 -169 -34c-9 -12 15 -26 29 -6c1 2 1 3 0 4c37 26 85 21 130 15c-20 -47 -26 -106 -29 -154c-3 -58 -3 -122 38 -169c34 -40 79 -35 103 54c7 -44 20 -88 46 -121c34 -43 63 -31 86 19c24 51 18 105 63 143
c6 5 -2 14 -8 9c-48 -46 -41 -109 -71 -156c-29 -43 -51 5 -56 36c-11 72 -5 201 2 268c2 17 5 33 6 50c52 2 104 15 138 53c5 5 -1 13 -7 9c-41 -31 -85 -43 -130 -44c0 8 -1 16 -2 24c-4 22 -33 21 -44 5c-6 -8 -10 -17 -13 -26c-16 2 -33 5 -49 8c2 22 -14 38 -32 37z
M-22 420c16 -2 31 -5 46 -6c4 -1 -19 -73 -11 -186c-6 -30 -20 -111 -47 -103c-14 4 -14 49 -15 59c-16 123 15 180 27 236z" />
    <glyph glyph-name="th" unicode="th" horiz-adv-x="442" 
d="M34 485c-7 0 -14 -3 -19 -7c-24 -18 -27 -54 -30 -83c-24 3 -47 8 -70 13c2 15 2 30 -1 43c-5 27 -39 25 -53 7c-7 -10 -12 -22 -14 -36c-56 10 -149 19 -174 -32c-6 -13 -6 -31 4 -42c14 -15 25 -9 39 0c3 2 1 8 -3 7c-4 0 -8 1 -11 4c-4 21 3 33 21 36
c33 11 84 8 120 3c2 -1 -33 -179 36 -276c27 -39 82 -47 119 23c4 -20 9 -39 20 -54c7 -10 20 -8 24 3c8 20 7 44 6 67c4 23 10 46 18 69c6 15 57 119 75 84c9 -16 -1 -68 -7 -123c-5 -57 -6 -111 14 -160c15 -37 42 -66 83 -20c50 69 37 171 83 194c6 3 0 14 -7 10
c-41 -22 -27 -93 -87 -176c-15 -21 -17 -14 -22 5c-25 93 49 268 -32 306c-29 14 -49 -9 -66 -29c-24 -25 -42 -57 -54 -91c0 41 0 98 4 139c58 2 121 20 146 73c3 7 -5 14 -11 9c-42 -35 -82 -56 -133 -59c5 27 12 55 1 81c-4 9 -12 12 -19 12zM-88 385
c23 -5 47 -10 70 -13c-7 -73 -1 -122 10 -192c-6 -18 -15 -34 -27 -48c-50 -56 -59 52 -60 81c-4 117 -2 117 7 172z" />
    <glyph glyph-name="st" unicode="st" horiz-adv-x="323" 
d="M157 477h-5c-32 -11 -36 -50 -40 -79c-45 -8 -146 -24 -189 -10c-9 3 -51 26 -31 42c6 4 0 13 -7 11c-31 -9 -14 -48 5 -62c34 -28 91 -18 132 -13c29 4 59 10 88 17c-3 -26 -7 -53 -7 -79c-26 -49 -55 -77 -95 -107c-8 17 -17 40 -15 58c3 22 22 11 38 10
c16 0 31 17 25 33c-13 36 -54 46 -87 30c-34 -17 -51 -57 -40 -94c8 -26 26 -45 45 -64c-42 -35 -77 -78 -47 -131c36 -61 111 -25 118 35c5 41 -16 75 -32 110c39 30 63 51 90 92c1 -65 7 -137 30 -197c12 -30 49 -87 80 -43c33 46 14 104 78 168c6 5 -2 15 -9 11
c-53 -40 -57 -110 -79 -156c-31 -47 -39 49 -40 76c-1 69 8 196 17 263c48 10 193 42 199 -8c2 -10 16 -6 17 3c5 38 -48 36 -73 35c-49 0 -94 -7 -141 -16c3 21 5 44 -11 60c-4 3 -9 5 -14 5zM-17 160c83 -92 6 -156 -33 -118c-41 39 -2 88 33 118z" />
    <glyph glyph-name="az" unicode="az" horiz-adv-x="574" 
d="M108 345c-80 1 -162 -142 -127 -225c12 -27 38 -48 68 -49s49 18 64 42c15 23 26 49 36 74c6 -52 31 -131 87 -117c82 20 72 206 112 221c12 5 41 -11 53 -13c18 -2 35 -3 52 -1c-56 -70 -98 -168 -115 -235c-3 -11 11 -20 20 -11c23 24 41 47 76 51c23 2 47 2 67 14
c42 24 62 68 82 109c4 8 -8 15 -12 7c-65 -140 -119 -86 -180 -116c30 66 75 158 130 205c12 9 3 33 -13 31c-113 -13 -127 13 -158 -3c-15 -9 -26 -34 -34 -49c-22 -44 -29 -104 -55 -147c-6 -10 -21 -35 -36 -26c-11 7 -9 30 -9 40c0 28 -3 56 0 83c3 24 17 50 17 74
c8 35 -39 43 -57 21c-4 -5 -7 -10 -10 -15c-8 22 -31 34 -56 35h-2zM109 276c14 0 30 -10 43 -5c-8 -27 -15 -55 -27 -80c-11 -23 -56 -107 -80 -54c-20 47 28 126 54 137c4 2 7 2 10 2z" />
    <glyph glyph-name="at.1" unicode="at" horiz-adv-x="456" 
d="M307 471c-11 -1 -22 -7 -26 -23c-5 -19 -7 -39 -8 -59c-41 -9 -103 -15 -144 -3c-38 11 -57 42 -52 50c2 4 1 9 -3 12c-1 0 -2 1 -3 1c-4 3 -10 2 -14 -2c-17 -19 4 -51 21 -64c30 -24 74 -21 110 -19c29 2 57 7 85 13c-2 -68 -2 -97 -1 -121c-7 -40 -16 -83 -34 -117
c-8 -14 -28 -36 -41 -16c-9 13 -7 75 -7 91c3 58 25 85 16 104c-8 18 -33 21 -50 3c-60 63 -186 -29 -169 -147c3 -23 10 -49 32 -62c20 -13 44 -9 63 5c22 16 34 41 46 65c7 -47 42 -112 87 -96s55 84 62 126c5 -29 11 -58 16 -86c6 -28 11 -58 26 -83c27 -47 61 -48 87 8
c25 55 23 108 73 149c8 7 -4 20 -13 13c-62 -53 -56 -130 -82 -160c-38 -42 -50 23 -51 49c-2 55 7 109 7 164c-1 92 1 100 3 131c80 25 72 5 106 -17c8 -6 17 0 20 8c10 26 -18 46 -42 48c-28 2 -57 -14 -84 -26c1 10 0 20 -1 30c-2 19 -19 31 -35 31zM104 273
c9 0 18 -8 26 -13c-3 -15 -5 -31 -5 -46c-10 -22 -24 -53 -41 -70c-29 -29 -59 -12 -51 27c9 42 48 102 71 102z" />
    <glyph glyph-name="att" unicode="att" horiz-adv-x="559" 
d="M434 473c-6 0 -12 -3 -15 -10c-9 -20 -12 -41 -13 -63c-21 -5 -43 -10 -65 -14c5 42 5 96 -29 85c-36 -12 -37 -56 -42 -96c-38 -4 -96 -7 -129 12c-6 3 -31 32 -31 32c14 4 4 25 -11 19c-34 -17 2 -64 22 -76c40 -23 101 -12 147 -5c-3 -28 -4 -55 -4 -83
c-7 -36 -15 -72 -30 -106c-9 -23 -39 -52 -57 -18c-30 52 23 156 -19 168c-11 3 -20 0 -27 -8c-3 14 -17 25 -31 29c-63 13 -160 -107 -121 -198c20 -46 100 -95 136 36c11 -38 40 -80 82 -75c50 7 62 65 71 106c7 -48 24 -102 66 -107c48 -7 65 56 73 100
c4 -72 10 -125 28 -155c25 -43 62 -37 81 7c12 30 17 62 26 93c16 55 15 44 23 64c2 4 -7 8 -11 2c-6 -5 -24 -74 -42 -126c-25 -83 -54 -31 -56 9c-2 51 5 143 8 304c119 25 105 7 139 -16c8 -6 18 2 19 11c2 36 -39 42 -66 38c-31 -5 -62 -12 -92 -19c0 16 -2 31 -7 45
c-4 9 -14 15 -23 15zM406 386c-1 -38 -1 -53 -2 -88c-16 -135 -79 -257 -72 -53c2 107 1 82 7 125c23 5 45 10 67 16zM111 279c-10 -33 -8 -69 -18 -103c-5 -15 -15 -47 -32 -53c-66 -28 -34 136 42 154c3 1 5 1 8 2z" />
    <glyph glyph-name="et" unicode="et" horiz-adv-x="327" 
d="M207 466c-16 0 -35 -17 -43 -59c-66 -21 -188 -55 -186 14c0 14 -20 20 -26 7c-14 -26 1 -55 26 -67c33 -15 72 -3 184 28c-20 -143 -7 -121 -16 -157c-9 -31 -18 -65 -37 -92c-19 -26 -67 -47 -87 -12c-11 21 -14 45 -10 69c43 6 84 45 97 83c10 29 -4 57 -34 66
c-86 26 -187 -169 -94 -254c55 -51 127 -2 155 52c7 15 13 31 18 47c4 -28 10 -55 21 -79c15 -33 51 -49 78 -18c34 39 33 86 56 112c5 4 -1 10 -6 8c-14 -6 -22 -27 -34 -52c-5 -10 -34 -71 -54 -50c-9 9 -2 47 -2 58c4 163 15 202 21 237c102 22 92 -8 110 -16
c6 -3 13 -2 16 4c1 1 2 3 3 4c2 5 3 12 0 17c-15 21 -36 23 -60 21c-23 -2 -45 -6 -67 -11c0 24 -14 39 -29 40zM79 297c0 0 1 0 1 -1c20 -4 -15 -52 -18 -55c-13 -12 -28 -18 -44 -21c7 22 19 42 33 56c6 6 18 20 28 21z" />
    <glyph glyph-name="ett" unicode="ett" horiz-adv-x="497" 
d="M375 486c-29 0 -39 -38 -44 -69c-27 -5 -45 -7 -74 -12c3 11 6 21 7 31c6 11 3 18 0 25c-8 26 -40 28 -54 7c-14 -19 -21 -46 -26 -72c-58 -7 -150 -26 -166 29c-4 13 -23 13 -26 0c-10 -34 20 -60 51 -63c44 -5 94 6 138 15c-8 -50 -14 -91 -8 -141
c-11 -34 -24 -67 -44 -97c-15 -23 -68 -69 -82 -18c-6 22 -4 48 4 72c67 17 119 104 70 135c-54 34 -151 -67 -134 -169c5 -33 27 -74 60 -86c61 -22 109 72 130 133c8 -48 27 -103 75 -114c39 -9 58 20 68 52c7 -35 19 -69 38 -97c29 -42 69 -44 95 0c34 58 34 102 65 154
c6 8 -6 20 -11 11c-36 -64 -36 -97 -64 -149c-48 -79 -68 33 -67 79c3 108 12 190 25 274c51 8 69 4 104 -18c18 -11 39 16 23 31c-31 29 -69 13 -125 1c4 26 4 53 -23 56h-5zM330 403c-8 -76 -13 -102 -16 -157c-3 -52 4 -68 1 -80c-8 -28 -40 -83 -67 -36
c-25 41 -7 212 5 260c26 5 51 9 77 13zM108 284c4 0 3 -3 2 -10c-1 -24 -26 -48 -51 -58c6 15 14 29 22 40c5 7 15 25 24 27c2 1 3 1 3 1z" />
    <glyph glyph-name="ii" unicode="ii" horiz-adv-x="304" 
d="M206 401c-4 0 -9 -1 -13 -3c-13 -6 -22 -29 -7 -45c11 -11 28 -11 39 0v0c7 7 12 21 6 32c-3 9 -13 16 -25 16zM55 400c-12 1 -23 -10 -22 -23c0 -7 4 -14 7 -16c17 -15 47 16 28 34c-5 3 -3 2 -9 5h-4zM47 336c-6 0 -11 -2 -17 -7c-32 -30 -36 -92 -31 -133
c11 -100 91 -141 136 -68c16 -110 91 -154 137 -70c27 51 16 95 70 152c3 3 -1 9 -6 7c-25 -14 -38 -43 -48 -69c-7 -20 -49 -143 -76 -80c-8 18 -7 40 -9 59c-12 109 15 110 17 177c1 17 -16 29 -32 25c-49 -14 -56 -103 -56 -154c-4 -11 -8 -22 -13 -31
c-16 -26 -46 -45 -60 -2c-8 25 -1 58 2 83c3 28 15 58 12 86c-2 15 -14 25 -26 25z" />
    <glyph glyph-name="ll" unicode="ll" horiz-adv-x="303" 
d="M71 497c-10 -1 -21 -7 -30 -21c-33 -56 -40 -136 -41 -201c0 -52 5 -140 56 -172c41 -25 73 7 89 43c8 -52 28 -144 81 -143c23 1 41 23 50 43c59 122 60 156 63 161c0 11 -8 15 -11 6c-9 -27 -74 -256 -121 -164c-21 41 -4 274 6 325c4 25 14 50 13 75
c6 23 -28 44 -48 25c-25 -25 -29 -69 -34 -102c-13 -84 -11 -139 -4 -193c-20 -73 -61 -63 -67 -29c-2 11 -2 23 -2 34c-3 90 -9 131 14 219c26 60 9 94 -14 94z" />
    <glyph glyph-name="mm" unicode="mm" horiz-adv-x="807" 
d="M715 400c-11 0 -24 -5 -35 -15c-26 -25 -47 -68 -63 -101c1 7 1 14 2 20c3 34 -19 98 -62 69c-34 -23 -46 -70 -60 -107c-19 -53 -27 -96 -32 -118c-12 53 -12 109 -3 150c16 10 3 34 -13 36c-52 6 -58 -89 -51 -138c-10 -52 -22 -124 -47 -169c-7 -13 -17 -30 -30 -12
c-6 8 -6 23 -8 32c-11 88 31 172 24 259c-2 31 -17 72 -56 62c-25 -6 -43 -41 -56 -61c-24 -37 -22 -51 -22 -36c2 21 2 47 -14 63c-14 13 -34 15 -50 3c-39 -31 -67 -117 -76 -167c-2 39 -3 79 5 117c14 12 5 39 -16 41c-52 3 -54 -86 -53 -121c1 -55 17 -110 56 -149
c5 -5 16 -2 16 6c-1 4 -1 7 -1 10c7 24 22 145 54 203c49 79 6 -147 34 -180c11 -11 33 -3 32 13c-1 11 -1 21 -1 31c12 62 21 126 65 175c21 30 18 -3 17 -24c-3 -65 -19 -69 -2 -190c3 -26 29 -160 81 -110c24 23 30 65 53 179c9 -34 26 -67 49 -92c10 -10 30 -3 29 11
c-6 43 7 93 17 134c5 21 27 118 58 126c7 -53 -35 -146 -16 -190c6 -17 30 -29 45 -12c17 21 19 45 22 71c11 32 54 137 86 147c0 -6 -1 -12 -2 -17c-12 -131 -4 -47 -22 -165c-9 -62 -16 -131 17 -188c10 -18 27 -38 50 -32c22 6 30 33 37 52c39 105 33 169 70 187
c9 4 1 16 -7 12c-45 -24 -43 -131 -90 -198c-10 -15 -17 -22 -24 -1c-8 26 -1 56 27 239c5 36 20 89 1 123c-9 15 -22 22 -35 22z" />
    <glyph glyph-name="nn" unicode="nn" horiz-adv-x="570" 
d="M451 361c-26 0 -43 -35 -54 -54c-28 -47 -39 -99 -49 -152c-11 43 -19 117 -5 159c4 10 -4 23 -15 26c-54 12 -60 -77 -51 -131c-5 -30 -12 -64 -28 -90c-4 -6 -11 -20 -18 -21c-22 -4 -30 41 -31 63c-3 55 21 136 -9 169c-54 58 -107 -85 -130 -164c-3 15 -7 30 -7 44
c-3 62 10 68 13 94c1 8 -4 19 -16 25c-43 22 -77 -45 -59 -128c19 -92 84 -137 72 -52c10 39 40 134 77 158c14 10 10 0 9 -13c-3 -50 -11 -91 4 -144c7 -28 38 -91 78 -72c16 8 25 26 50 107c11 -39 30 -76 59 -102c9 -8 26 -3 26 11c-7 125 22 183 64 236
c0 -16 0 23 -8 -100c-8 -111 37 -261 92 -213c46 40 35 126 82 185c7 4 0 16 -7 11c-37 -29 -45 -168 -83 -178c-26 -15 -28 43 -29 57c-4 67 48 262 -24 268c-1 1 -2 1 -3 1z" />
    <glyph glyph-name="zz" unicode="zz" horiz-adv-x="581" 
d="M241 329c-2 0 -3 0 -5 -1c-44 -14 -92 17 -134 -12c-33 -22 -57 -68 -65 -106c-3 -14 19 -20 21 -6c21 105 77 84 126 75c-46 -47 -115 -157 -128 -230c-10 -24 28 -45 43 -20c8 13 15 27 21 41c29 20 85 23 109 31c62 22 61 71 140 149c33 34 64 14 111 10
c-60 -53 -105 -112 -135 -202c-4 -12 11 -18 19 -11c25 20 50 40 78 54c81 41 122 -23 201 107c4 5 -4 9 -8 4c-102 -133 -119 -24 -247 -118c37 68 89 134 154 174c4 2 9 4 13 7c17 9 5 40 -14 33c-39 -16 -80 22 -134 1c-19 -8 -28 -16 -96 -111c-16 -22 -31 -50 -56 -63
c-32 -17 -65 0 -113 -15c23 51 73 134 114 173c13 13 2 37 -15 36z" />
    <glyph glyph-name=".notdef" horiz-adv-x="500" 
d="M50 0v500h400v-500h-400zM100 50h300v400h-300v-400z" />
    <glyph glyph-name="space" unicode=" " horiz-adv-x="230" 
 />
    <glyph glyph-name="space" horiz-adv-x="230" 
 />
    <glyph glyph-name="exclam" unicode="!" horiz-adv-x="124" 
d="M108 483c-14 0 -29 -9 -33 -22c-14 -44 -12 -102 -8 -148c4 -43 7 -96 29 -135c6 -12 24 -9 27 3c12 43 7 93 9 138c2 46 8 96 2 142c-2 15 -13 21 -26 22zM115 147c-11 0 -21 -10 -20 -24c1 -37 40 -34 43 -7c0 11 -4 23 -13 28c-3 2 -7 3 -10 3z" />
    <glyph glyph-name="quotedbl" unicode="&#x22;" horiz-adv-x="145" 
d="M115 471c-3 0 -7 0 -9 -2c-20 -15 -15 -38 -16 -60c0 -20 -9 -47 2 -65c3 -6 11 -8 16 -5c21 12 25 43 28 64c4 22 10 52 -13 66c-2 1 -5 2 -8 2zM56 468c-14 0 -29 -10 -26 -31c7 -53 0 -44 -6 -78c-2 -10 9 -22 19 -14c29 20 33 66 36 99c2 16 -10 24 -23 24z" />
    <glyph glyph-name="numbersign" unicode="#" horiz-adv-x="363" 
d="M204 444c-44 1 -57 -66 -60 -120c-26 -5 -51 -11 -75 -20c-10 -3 -12 -19 0 -21s21 -3 28 6c15 4 31 8 46 11c-1 -23 0 -40 0 -51c-18 -4 -36 -8 -53 -14c-13 -4 -12 -26 3 -25c17 2 -3 0 51 12c2 -25 4 -50 8 -75c4 -29 4 -76 36 -89c4 -2 10 0 12 3c22 22 7 66 4 94
c-2 25 -2 51 -2 77c22 3 39 5 60 5c3 -27 8 -54 13 -81c6 -31 11 -68 29 -94c5 -6 13 -3 14 4c4 40 -14 60 -14 171c20 0 41 -4 60 2c5 1 6 8 2 10c-16 10 -38 14 -61 15c1 15 3 30 5 45c15 -2 30 -3 44 -2c12 1 14 16 3 20c-13 5 -27 7 -42 9c5 25 12 50 14 75
c1 22 -32 39 -47 20c-21 -27 -27 -61 -28 -95c-14 -1 -27 -2 -43 -4c2 14 5 27 9 41c5 17 24 63 -7 70c-3 1 -6 1 -9 1zM255 313c1 -17 3 -34 5 -50c-34 -2 -44 -3 -56 -4c1 17 2 32 4 51c13 1 25 2 47 3z" />
    <glyph glyph-name="dollar" unicode="$" horiz-adv-x="313" 
d="M184 485c-5 0 -10 -3 -10 -10c0 -13 -1 -26 -1 -39c-53 -18 -124 -61 -108 -116c12 -40 60 -59 102 -75c-1 -33 -2 -66 -3 -100c-29 -3 -60 1 -76 20c-5 6 -15 0 -13 -8c8 -31 46 -42 87 -39c-2 -29 -5 -60 3 -86c2 -7 12 -7 14 0c10 27 7 60 7 90c66 15 127 66 70 134
c-19 22 -41 37 -65 50c1 34 2 68 2 102c27 15 73 30 99 15c18 -10 23 -37 12 -54c-15 -24 -36 -26 -61 -24c-23 3 -22 -37 0 -34c51 6 124 76 67 122c-29 25 -79 18 -116 9v33c1 7 -5 10 -10 10zM171 392c-1 -25 -2 -50 -2 -75c-50 20 -52 22 -14 61c5 5 11 10 16 14z
M189 237c28 -11 48 -16 56 -28c19 -29 -26 -51 -59 -59z" />
    <glyph glyph-name="percent" unicode="%" horiz-adv-x="427" 
d="M315 472c-8 0 -35 -6 -62 -34c-53 -14 -99 -12 -142 1c-12 4 -19 -12 -12 -20c19 -22 28 -90 -15 -93c-27 -3 -26 25 -22 45c6 41 5 29 10 35c22 21 -19 45 -39 24c-30 -32 -28 -99 7 -127c52 -40 123 33 93 106c35 -6 67 -5 99 1c-15 -23 -26 -49 -35 -71
c-29 -69 -49 -143 -41 -218c4 -33 24 -115 74 -83c21 13 36 41 75 117c20 -41 79 -40 98 12c10 28 2 60 -23 76c-31 20 -68 10 -76 -12c-7 -10 -2 -64 -66 -154c-5 -7 -9 -13 -14 -18c-21 -3 -32 2 -34 17c-4 14 -6 61 16 120c17 47 40 92 62 137c17 38 96 138 49 139h-2z
M344 224c19 0 34 -7 37 -30c1 -9 0 -17 -4 -24c-3 -9 -9 -11 -20 -5c-11 -4 -18 -2 -19 7c-9 15 0 44 -1 52h7z" />
    <glyph glyph-name="ampersand" unicode="&#x26;" horiz-adv-x="315" 
d="M219 480c-18 0 -38 -6 -58 -20c-59 -40 -62 -115 -47 -180c-25 -22 -48 -47 -60 -80c-34 -97 55 -190 162 -96c25 -24 57 -47 90 -53c9 -1 18 9 10 16c-25 22 -53 39 -78 59c28 31 61 80 42 118c-2 5 -10 3 -11 -2c-12 -35 -1 -59 -43 -105c-29 25 -55 59 -74 96
c48 33 96 72 125 122c35 64 -1 126 -58 125zM197 449c24 1 41 -16 28 -47c-19 -47 -59 -77 -97 -109c-29 107 29 155 69 156zM134 221c18 -40 42 -75 70 -105c-69 -57 -132 -23 -122 35c6 31 27 52 52 70z" />
    <glyph glyph-name="quotesingle" unicode="'" horiz-adv-x="111" 
d="M84 466c-7 0 -13 -3 -16 -9c-10 -19 -7 -41 -8 -62c-1 -31 -10 -32 -17 -50c-2 0 -3 0 -5 -1c-10 -1 -11 -16 0 -16c19 -2 41 -12 59 34c10 27 17 70 2 95c-3 6 -9 9 -15 9z" />
    <glyph glyph-name="parenleft" unicode="(" horiz-adv-x="152" 
d="M138 490c-41 0 -55 -81 -63 -130c-19 -111 12 -268 58 -351c9 -16 35 -5 29 12c-11 38 -25 74 -31 113c-14 87 2 200 27 284c5 14 13 28 13 42c0 13 -7 24 -24 29c-3 0 -6 1 -9 1z" />
    <glyph glyph-name="parenright" unicode=")" horiz-adv-x="102" 
d="M1 480c-15 -1 -30 -15 -32 -31s9 -35 15 -50c102 -274 -1 -365 31 -414c2 -3 5 -3 9 -2c32 14 34 79 39 109c13 93 11 313 -43 378c-6 7 -12 10 -19 10z" />
    <glyph glyph-name="asterisk" unicode="*" horiz-adv-x="153" 
d="M81 460c-5 0 -9 -2 -11 -9c-1 -6 -2 -11 -2 -17c-3 4 -5 8 -7 13c-2 9 -19 10 -19 -2c0 -16 13 -29 22 -41c1 -2 -21 -15 -39 -21c-15 -5 -2 -26 8 -18c11 8 23 16 34 24c0 -13 0 -25 4 -36c2 -6 11 -9 14 -2c9 22 -1 22 11 15c5 -4 13 2 10 8c-2 9 -8 16 -13 24
c0 3 0 6 1 8c16 12 33 23 47 36c7 6 -2 17 -9 12c-12 -9 -24 -19 -37 -28c1 7 1 14 0 22c0 7 -7 12 -14 12z" />
    <glyph glyph-name="plus" unicode="+" horiz-adv-x="234" 
d="M178 332c-11 0 -23 -7 -27 -19c-8 -21 -7 -45 -5 -68c-4 0 -40 -2 -40 -2c-19 -1 -21 -32 0 -31c14 0 29 1 43 2c5 -46 -6 -88 18 -112c4 -4 12 -4 17 0c24 25 11 64 18 118c21 2 43 3 61 13c7 4 5 15 -2 17c-18 4 -37 2 -55 -1c2 22 3 44 -3 64c-4 13 -15 20 -25 19z
" />
    <glyph glyph-name="comma" unicode="," horiz-adv-x="105" 
d="M75 165c-12 0 -25 -8 -24 -22c2 -21 20 -52 -14 -70c-16 -8 -5 -32 12 -28c39 9 53 64 46 104c-2 11 -11 16 -20 16z" />
    <glyph glyph-name="hyphenminus" unicode="-" horiz-adv-x="269" 
d="M104 248c-23 0 -22 -36 1 -38c33 -2 66 -1 99 1c27 1 58 -2 83 9c10 5 6 20 -3 23c-27 7 -58 1 -85 1c-32 0 -62 3 -94 4h-1z" />
    <glyph glyph-name="period" unicode="." horiz-adv-x="102" 
d="M86 145c-7 1 -14 -2 -19 -7c-4 -4 -9 -13 -9 -21c0 -22 24 -34 40 -24c12 5 17 23 13 33c-3 12 -14 19 -25 19z" />
    <glyph glyph-name="slash" unicode="/" horiz-adv-x="193" 
d="M166 476c-7 0 -13 -3 -17 -10c-20 -36 -22 -56 -78 -215c-59 -167 -71 -176 -73 -214c0 -9 14 -16 20 -8c20 26 29 62 41 93c115 295 118 284 128 328c3 15 -9 26 -21 26z" />
    <glyph glyph-name="zero" unicode="0" horiz-adv-x="295" 
d="M218 464c-10 0 -20 -2 -28 -8c-52 -1 -90 -129 -98 -162c-14 -65 -29 -180 40 -220c113 -66 229 192 170 331c-14 31 -51 58 -84 59zM223 437c16 -1 31 -9 43 -24c37 -48 28 -208 -47 -277c-70 -64 -72 68 -67 109c8 57 32 116 48 141c11 16 33 30 23 51z" />
    <glyph glyph-name="one" unicode="1" horiz-adv-x="189" 
d="M165 487c-3 0 -6 -1 -9 -3c0 1 -21 -12 -31 -51c-17 -18 -24 -27 -44 -47c-19 -19 -52 -33 -62 -58c-2 -5 4 -9 8 -10c29 -3 65 38 88 65c-10 -63 -12 -132 -11 -197c0 -30 -5 -73 12 -100c4 -6 15 -7 18 0c12 27 6 61 8 89c8 128 70 251 40 303c-3 6 -10 9 -17 9z" />
    <glyph glyph-name="two" unicode="2" horiz-adv-x="337" 
d="M194 459c-17 0 -35 -2 -55 -8c-112 -34 -140 -153 -78 -180c14 -6 30 11 17 23c-73 70 90 186 140 117c22 -30 8 -76 -1 -108c-13 -47 -35 -92 -63 -132c-45 11 -98 21 -127 -18c-20 -25 -18 -62 11 -79c32 -19 78 -7 107 12c20 13 38 29 55 47c18 -5 37 -9 56 -12
c31 -4 61 7 67 40c2 9 -11 16 -16 7c-18 -32 -60 -19 -89 -12c39 51 65 114 73 174c10 84 -31 129 -97 129zM88 159c16 0 34 -4 50 -9c-15 -18 -33 -34 -54 -44c-28 -13 -64 9 -34 39c10 10 24 14 38 14z" />
    <glyph glyph-name="three" unicode="3" horiz-adv-x="248" 
d="M176 474c-13 0 -27 -2 -42 -7c-85 -25 -103 -115 -58 -118c8 0 11 8 8 14c-14 26 12 57 33 71c22 15 89 31 83 -14c-5 -44 -88 -102 -84 -142c3 -22 28 -39 41 -56c17 -21 32 -47 30 -75c-9 -89 -118 -45 -120 13c0 10 -14 12 -18 2c-24 -63 57 -113 113 -103
c69 11 85 94 61 150c-12 28 -28 47 -47 71c30 21 58 65 71 99c22 58 -13 96 -71 95z" />
    <glyph glyph-name="four" unicode="4" horiz-adv-x="400" 
d="M308 476c-8 0 -16 -5 -20 -16c-24 -65 -40 -111 -78 -168c-15 0 -31 -1 -46 -4c-30 -6 -122 -46 -89 -93c15 -20 45 -11 64 -2c35 16 65 49 90 79c27 -2 54 -6 80 -11c-7 -59 -11 -129 2 -188c7 -33 52 -22 55 8c5 45 -4 37 9 166c1 7 -1 4 9 6c6 1 7 10 2 13
c-3 1 -5 2 -8 3c7 48 17 96 30 143c11 41 -53 59 -65 18c-14 -49 -25 -99 -31 -149c-22 3 -48 7 -69 9c35 47 63 99 86 153c8 19 -7 33 -21 33zM196 273c-22 -29 -50 -56 -83 -66c-44 -13 -19 62 83 66z" />
    <glyph glyph-name="five" unicode="5" horiz-adv-x="325" 
d="M193 476c-12 0 -26 -8 -43 -32c-21 2 -43 4 -64 5c-18 2 -16 -27 0 -26c17 -2 33 -4 50 -4c-28 -57 -32 -112 -27 -164c2 -21 2 -51 24 -61c16 -6 27 9 29 27c26 18 64 25 93 12c44 -20 34 -71 8 -102c-52 -66 -149 -58 -199 6c-4 5 -14 -1 -12 -7c49 -118 216 -84 271 9
c69 119 -75 207 -158 127c2 16 5 31 9 47c20 77 24 71 38 102c38 -1 84 -10 119 1c8 3 8 13 0 15c-33 11 -75 6 -111 7c3 14 -8 38 -27 38z" />
    <glyph glyph-name="six" unicode="6" horiz-adv-x="265" 
d="M208 495c-49 1 -99 -129 -108 -158c-21 -70 -27 -161 9 -228c34 -62 104 -70 150 -16c31 37 63 135 -4 156c-37 12 -81 -11 -107 -40c6 178 107 250 82 236c12 14 10 28 1 38c-8 8 -15 12 -23 12zM241 224c11 0 20 -6 26 -23c10 -33 -8 -74 -31 -96
c-28 -28 -67 -25 -81 27c7 11 11 28 24 47c11 17 40 44 62 45z" />
    <glyph glyph-name="seven" unicode="7" horiz-adv-x="321" 
d="M84 479c-8 0 -17 0 -26 -2c-74 -16 -67 -84 -30 -90c10 -2 23 6 18 18c-21 54 94 29 118 24c31 -6 45 -8 66 -6c-24 -44 -35 -92 -56 -156c-36 -1 -20 2 -92 2c-14 0 -13 -20 0 -21c28 -2 57 -3 85 -3c-31 -93 -42 -123 -42 -153c-1 -17 22 -22 30 -9c21 35 22 68 63 161
c18 0 37 2 52 10c6 2 4 10 -1 12c-12 4 -26 5 -39 4c48 100 72 129 78 172c5 34 -29 40 -45 26c0 1 -11 -11 -17 -19c-41 -10 -102 29 -162 30z" />
    <glyph glyph-name="eight" unicode="8" horiz-adv-x="294" 
d="M240 493c-14 0 -29 -4 -45 -11c-51 -23 -101 -81 -50 -130c11 -10 22 -18 34 -26c-61 -24 -110 -90 -92 -158c17 -69 97 -89 152 -48c51 37 66 111 22 165c106 76 68 209 -21 208zM219 458c15 1 29 -6 37 -23c7 -16 6 -35 0 -51c-8 -23 -26 -38 -44 -55c-2 1 -5 2 -8 3
c-25 17 -63 38 -62 66c0 25 42 60 77 60zM247 276c30 -36 37 -91 -3 -123c-37 -30 -99 -21 -98 34c1 30 16 54 39 75c13 -9 48 6 62 14z" />
    <glyph glyph-name="nine" unicode="9" horiz-adv-x="283" 
d="M191 485c-49 0 -109 -45 -129 -153c-5 -25 -5 -54 14 -74c48 -49 117 27 153 87c2 -38 5 -107 -5 -144c-21 -85 -96 -98 -138 -49c-6 6 -15 0 -13 -7c14 -58 104 -92 177 -8c52 58 52 145 45 221c-2 29 -2 57 -21 80c-6 8 -13 10 -20 9c-11 25 -35 38 -63 38zM191 418h4
c11 -4 14 -23 30 -27c1 -7 2 -14 2 -21c-40 -72 -97 -113 -123 -90c-8 7 -3 27 0 35c8 32 33 60 56 82c7 7 19 21 31 21z" />
    <glyph glyph-name="colon" unicode=":" horiz-adv-x="118" 
d="M102 379c-14 -1 -26 -9 -33 -28c-1 -10 -1 -6 0 -16c3 -7 4 -12 11 -16c7 -7 23 -9 34 -2c1 0 11 7 15 15c12 22 -1 47 -27 47zM106 261c-23 0 -44 -37 -19 -57c16 -14 31 -6 34 -4v0v0h1c23 16 19 45 4 54c-2 3 -9 6 -14 6c-2 0 -4 1 -6 1z" />
    <glyph glyph-name="semicolon" unicode=";" horiz-adv-x="121" 
d="M84 382c-2 0 -3 0 -9 -1c-41 -12 -40 -57 -7 -66c29 -8 62 26 45 51c-5 8 -12 13 -20 15c-5 1 -7 1 -9 1zM91 262c-10 0 -19 -7 -20 -19c-1 -15 12 -38 -4 -59c-7 -9 5 -23 15 -19c36 13 36 52 26 83c-2 9 -10 14 -17 14z" />
    <glyph glyph-name="less" unicode="&#x3c;" horiz-adv-x="222" 
d="M210 394c-5 0 -9 -1 -12 -3c-41 -32 -49 -88 -115 -119c-8 -4 -10 -16 -6 -24c15 -23 34 -43 53 -63s38 -41 62 -54c14 -8 29 8 22 22c-16 31 -76 89 -93 103c21 14 66 42 82 59c7 7 17 30 24 33c15 6 13 26 4 36c-6 8 -14 11 -21 10z" />
    <glyph glyph-name="equal" unicode="=" horiz-adv-x="343" 
d="M300 318c-18 0 -35 -2 -50 -2c-42 0 -83 -1 -124 -4c-34 -2 -31 -58 21 -46c3 1 78 3 103 3c31 1 76 -9 101 13c6 5 6 16 0 21c-13 12 -32 15 -51 15zM309 244c-23 0 -48 -3 -68 -4c-42 -3 -84 -7 -125 -14c-25 -4 -19 -43 5 -42c23 0 41 6 125 11c35 2 81 -6 113 9
c12 6 11 25 0 31c-14 7 -32 9 -50 9z" />
    <glyph glyph-name="greater" unicode="&#x3e;" horiz-adv-x="213" 
d="M54 393c-15 0 -29 -12 -24 -29c13 -40 91 -98 124 -119c-43 -32 -93 -66 -111 -118c-7 -21 20 -31 34 -20c23 18 73 92 124 123c11 7 14 23 4 32c-44 42 -88 86 -135 125c-5 4 -11 5 -16 6z" />
    <glyph glyph-name="question" unicode="?" horiz-adv-x="247" 
d="M110 489c-108 -1 -178 -147 -115 -184c25 -15 49 26 23 40c-13 7 0 42 4 51c34 78 142 81 127 8c-14 -68 -94 -159 -64 -222c7 -13 30 -17 39 -5c20 24 25 58 37 86c13 31 30 60 39 92c14 52 -1 115 -59 130c-11 3 -21 4 -31 4zM106 130h-6c-14 -1 -25 -16 -25 -29
c2 -47 59 -31 58 0c0 3 -1 6 -1 8c-3 11 -14 21 -26 21z" />
    <glyph glyph-name="at" unicode="@" horiz-adv-x="393" 
d="M246 440c-64 -1 -127 -44 -162 -98c-54 -81 -33 -191 49 -246c84 -55 214 -26 258 67c4 9 -8 20 -15 11c-53 -65 -136 -101 -212 -50c-80 53 -82 158 -18 224c57 58 172 83 209 -12c16 -39 8 -98 -33 -120c-54 -29 -50 58 -48 91c2 6 -1 11 -6 14c-5 32 -46 42 -75 28
c-42 -21 -62 -71 -56 -115c5 -28 27 -66 60 -49c16 9 27 29 37 45c15 -63 75 -75 117 -32c62 62 43 170 -26 217c-26 18 -52 25 -79 25zM226 297c4 0 8 -1 12 -3c-4 -11 -6 -22 -7 -34c-3 -6 -7 -12 -11 -18c-5 -9 -14 -28 -23 -31c-16 -5 -17 7 -15 19c3 20 20 66 44 67z
" />
    <glyph glyph-name="A" unicode="A" horiz-adv-x="510" 
d="M408 484c-8 0 -17 -4 -25 -14c-10 -3 -14 -30 -112 -177c-89 -4 -185 -29 -251 -89c-39 -37 -96 -138 -22 -172c77 -36 161 70 200 121c31 39 58 80 85 122c23 0 46 -1 69 -5c0 -52 13 -204 27 -251c7 -24 45 -20 44 6c-2 73 -16 76 -5 232c31 -9 63 -20 94 -33
c7 -2 11 9 5 13c-30 18 -63 31 -98 40c2 29 4 57 7 86c4 31 22 81 2 109c-5 7 -13 12 -20 12zM363 407c-4 -41 -9 -73 -10 -117c-20 2 -40 3 -59 3c24 38 46 76 69 114zM259 275c-46 -68 -167 -249 -246 -229c-79 21 -18 214 246 229zM140 216v-1v1z" />
    <glyph glyph-name="B" unicode="B" horiz-adv-x="340" 
d="M240 472c-6 0 -12 -1 -19 -4c-112 -44 -148 -188 -169 -305c3 122 47 193 35 229c-7 24 -40 22 -50 4c-30 -52 -35 -118 -37 -177c-2 -60 -2 -124 14 -182c7 -22 41 -18 40 5v20c6 40 10 80 17 121c3 0 7 4 26 12c10 4 20 8 30 13c45 15 96 20 98 -31
c-44 -12 -86 -27 -115 -64c-64 -81 7 -154 76 -124c65 28 115 118 97 190c31 9 64 10 92 22c9 6 0 19 -9 12c-26 -13 -57 -14 -87 -22c-15 40 -46 56 -90 52c35 25 65 55 85 88c51 84 11 141 -34 141zM220 439c11 0 19 -6 19 -24c1 -68 -118 -160 -164 -209
c15 73 40 158 91 206c11 10 36 27 54 27zM224 163c-4 -49 -31 -97 -76 -118c-54 -25 -69 75 76 118z" />
    <glyph glyph-name="C" unicode="C" horiz-adv-x="370" 
d="M246 480h-10c-88 -8 -248 -160 -242 -309c5 -115 78 -155 160 -137c105 24 175 101 250 170c6 5 -2 14 -8 8c-55 -55 -116 -106 -189 -139c-40 -19 -105 -33 -138 7c-52 61 8 229 127 313c25 17 74 58 104 27c21 -21 -1 -60 -16 -78c-18 -21 -41 -33 -68 -36
c-5 -1 -7 -8 -1 -10c65 -14 137 80 109 140c-14 30 -47 44 -78 44z" />
    <glyph glyph-name="D" unicode="D" horiz-adv-x="440" 
d="M292 486c-41 1 -79 -36 -105 -66c-149 -176 -145 -399 -136 -210c3 59 18 113 39 168c13 35 -42 57 -60 26c-64 -113 -51 -255 -28 -377c5 -27 46 -20 46 6v38c16 87 45 170 88 247c25 44 55 99 101 122c27 14 50 11 63 -16c23 -46 29 -143 -10 -235
c-59 0 -117 -2 -166 -38c-150 -111 107 -300 234 27c41 2 80 0 118 23c8 5 0 18 -8 13c-32 -22 -68 -21 -105 -23c31 89 42 250 -41 289c-10 4 -20 6 -30 6zM284 176c-36 -77 -124 -161 -170 -123c-27 22 -10 58 11 78c40 38 103 44 159 45z" />
    <glyph glyph-name="E" unicode="E" horiz-adv-x="376" 
d="M175 480c-10 0 -19 -5 -25 -17l-6 -15c-46 -6 -92 -13 -139 -19c-17 -3 -13 -29 3 -29c12 0 16 0 24 7c34 12 69 20 105 26c-26 -64 -45 -131 -55 -199c-23 -5 -46 -9 -68 -14c-17 -4 -6 -29 7 -23c19 5 38 9 58 12c-9 -66 -21 -175 42 -220c60 -44 125 16 164 61
c47 55 76 103 132 151c7 5 -2 17 -9 12c-67 -50 -99 -118 -156 -172c-23 -21 -80 -58 -100 -15c-18 40 -11 148 -4 194c32 3 68 4 97 15c5 2 6 10 0 12c-29 7 -63 2 -93 -3c22 123 57 178 59 196c37 2 74 2 109 1c11 0 11 17 0 18c-38 1 -74 -1 -111 -4c-5 15 -20 25 -34 25
z" />
    <glyph glyph-name="F" unicode="F" horiz-adv-x="360" 
d="M224 476c-11 0 -22 -7 -32 -22c-69 -16 -145 -42 -197 -87c-21 -18 2 -48 25 -43c18 4 31 13 41 29c2 3 2 7 1 10c33 31 75 48 118 60c-8 -30 -20 -110 -19 -195c-61 -12 -76 -15 -80 -34c-4 -23 26 -31 34 -10c-3 -8 8 5 47 16c1 -44 12 -144 24 -187c8 -29 52 -23 53 7
c2 64 -8 129 -10 193c28 2 58 -1 84 8c5 1 7 9 2 11c-25 12 -57 11 -86 7c-1 139 23 150 25 200c101 16 155 1 223 -8c14 -2 20 17 6 22c-73 24 -160 22 -236 11c-6 8 -14 12 -23 12z" />
    <glyph glyph-name="G" unicode="G" horiz-adv-x="440" 
d="M258 493c-140 -1 -312 -209 -282 -344c8 -33 31 -57 65 -61c39 -6 77 17 109 37c62 39 113 90 161 144c0 -14 6 -24 1 -74c-88 -39 -179 -150 -105 -217c63 -45 127 58 146 105c15 36 22 79 25 117c28 10 39 11 70 2c5 -2 6 8 1 12c-16 9 -33 12 -71 3c1 37 2 82 -28 108
v1c2 6 -4 10 -9 7c-1 -1 -3 -2 -4 -3c-11 0 -16 -7 -20 -15c-33 -32 -52 -75 -145 -143c-32 -23 -73 -53 -112 -57c-101 -8 -47 178 110 277c30 19 73 45 108 31c43 -16 16 -55 24 -86c2 -6 8 -9 13 -8c37 8 56 59 48 92c-9 36 -42 62 -78 70c-9 2 -18 2 -27 2zM313 180
c-4 -33 -14 -80 -27 -110c-7 -18 -34 -71 -60 -64c-47 11 -22 77 -4 102c23 28 58 57 91 72z" />
    <glyph glyph-name="H" unicode="H" horiz-adv-x="391" 
d="M167 489c-6 0 -13 -3 -19 -8c-25 -24 -33 -68 -42 -100c-10 -40 -17 -78 -22 -119c-12 -1 -71 -8 -82 -12c-8 -1 -6 -14 2 -13c26 1 52 4 78 7c-7 -65 -9 -136 9 -198c10 -33 59 -27 59 8c1 66 -6 131 1 197c41 4 75 7 157 9c-1 -75 1 -147 8 -223c2 -18 31 -18 29 0
c-10 94 -9 164 -3 224c28 0 59 -3 86 4c6 2 6 11 0 13c-26 6 -56 4 -84 2c12 101 28 130 28 176c0 29 -38 31 -47 7c-15 -41 -17 -141 -17 -185c-53 -3 -81 -5 -155 -10c16 121 47 147 44 193c-1 16 -15 28 -30 28z" />
    <glyph glyph-name="I" unicode="I" horiz-adv-x="180" 
d="M80 456c-5 0 -10 -1 -14 -4c-18 0 -41 0 -60 -1c-16 -1 -16 -24 0 -25c15 -1 31 0 46 0c-34 -100 16 -219 2 -326c-2 -10 -4 -25 -9 -34c-46 5 -57 -31 -34 -47c17 -12 38 -4 52 8c37 -12 55 -22 79 -14c5 1 9 9 5 14c-13 20 -36 28 -60 32c30 61 24 187 22 256
c-1 37 3 75 -1 113c15 0 29 2 42 6c6 2 6 10 0 12c-18 6 -38 6 -57 6c-4 2 -9 4 -13 4z" />
    <glyph glyph-name="J" unicode="J" horiz-adv-x="301" 
d="M224 498c-4 0 -7 -1 -11 -3c0 2 -11 -7 -13 -9c-52 -36 -133 -27 -209 -91c-16 -13 -43 -41 -21 -62c31 -29 72 30 47 31h-9c27 45 118 75 169 86c-23 -62 -1 -131 -22 -257c-231 -41 -204 -198 -96 -199c89 0 147 107 162 195c24 4 48 8 70 16c8 2 5 15 -3 12
c-21 -6 -42 -10 -64 -13c13 88 6 179 20 268c3 15 -8 26 -20 26zM152 178c-7 -36 -19 -71 -37 -102c-19 -31 -55 -62 -92 -41c-51 29 -2 89 30 109c31 19 64 28 99 34z" />
    <glyph glyph-name="K" unicode="K" horiz-adv-x="415" 
d="M153 479c-10 0 -20 -5 -26 -16c-24 -47 -38 -211 -42 -266c-169 64 -169 -178 -3 -61c-1 -40 1 -79 8 -117c3 -21 35 -19 40 0c9 33 15 67 19 101c80 -46 212 -97 244 -10c3 9 -10 13 -14 6c-36 -60 -162 11 -226 47c3 40 1 33 6 38c76 75 144 157 201 246
c11 18 -16 32 -28 16c-56 -74 -115 -155 -174 -225c4 67 10 134 29 199c7 23 -14 42 -34 42zM15 183c22 0 44 -10 65 -21c-18 -14 -39 -29 -61 -35c-15 -5 -37 -3 -45 14c-10 19 15 38 30 41c3 1 7 1 11 1z" />
    <glyph glyph-name="L" unicode="L" horiz-adv-x="220" 
d="M81 474c-9 0 -18 -4 -24 -14c-18 -32 -14 -78 -15 -114c-4 -143 7 -161 23 -260c-20 -4 -39 -9 -57 -16c-20 -7 -19 -42 6 -41c14 1 25 4 34 13c8 3 15 6 23 9c4 -18 8 -35 14 -51c7 -18 35 -16 35 5c0 20 -2 40 -4 61c69 20 144 21 215 11c13 -2 18 17 6 19
c-79 11 -146 9 -224 -2c-4 46 -1 90 -2 136c-1 37 -2 74 -1 111c1 34 11 79 -1 112c-4 13 -16 20 -28 21z" />
    <glyph glyph-name="M" unicode="M" horiz-adv-x="560" 
d="M500 479c-18 0 -38 -18 -48 -74c-32 -79 -75 -157 -134 -216c-11 -10 -31 -30 -46 -12c-6 8 -15 67 -13 105c6 94 28 121 17 156c-8 26 -31 24 -45 11c0 1 0 1 -1 2c-25 -26 -26 -71 -32 -113c-57 -106 -112 -195 -202 -288c-10 -10 6 -27 17 -16c76 77 131 164 180 258
c-2 -16 -2 -32 -1 -48c3 -50 32 -134 99 -114c41 13 80 79 113 135c67 113 24 83 38 -38c25 -208 96 -244 92 -212c-9 57 -47 99 -38 217c14 159 44 185 31 226c-3 11 -14 22 -27 21z" />
    <glyph glyph-name="N" unicode="N" horiz-adv-x="430" 
d="M167 497c-64 0 -110 -95 -130 -145c-20 -51 -32 -106 -38 -161c-6 -50 -13 -115 9 -162c3 -6 14 -5 16 2c4 24 1 47 0 71c-7 177 60 359 127 363c27 2 22 -30 23 -49c8 -157 -27 -279 41 -373c23 -31 65 -46 94 -16c30 32 40 81 51 122c28 103 43 226 12 330
c-3 8 -16 7 -15 -2c1 -51 5 -102 3 -153c-6 -123 -51 -262 -77 -260c-8 1 -14 18 -17 24c-48 92 -16 203 -24 301c-3 37 -10 88 -50 103c-9 3 -17 5 -25 5z" />
    <glyph glyph-name="O" unicode="O" horiz-adv-x="330" 
d="M133 493c-58 0 -116 -36 -140 -96c-16 -41 -13 -89 9 -126c-36 -99 -19 -242 68 -270c73 -25 189 55 206 255c14 169 -64 237 -143 237zM144 470c38 0 76 -22 97 -76c35 -87 16 -201 -31 -280c-66 -112 -173 -118 -167 27c1 26 5 54 13 80c48 -23 114 -18 150 24
c6 7 -2 20 -11 14c-39 -24 -89 -32 -126 -2c12 29 32 65 54 86c16 16 40 12 46 22c8 13 4 24 -6 31c-56 41 -109 -26 -136 -72c-19 79 50 147 117 146z" />
    <glyph glyph-name="P" unicode="P" horiz-adv-x="340" 
d="M216 488h-4c-63 -3 -114 -105 -132 -165c-26 -87 -26 -152 -26 -117c1 127 25 168 26 221c0 27 -38 37 -51 14c-20 -33 -26 -76 -31 -114c-10 -85 -1 -162 22 -243c8 -29 15 -78 42 -95c5 -4 12 0 14 6c4 13 1 23 -3 35c1 33 1 65 1 96c104 -48 217 62 235 186
c9 66 -5 178 -93 176zM198 439c9 0 17 -3 24 -9c67 -65 -20 -327 -146 -272c9 204 77 282 122 281z" />
    <glyph glyph-name="Q" unicode="Q" horiz-adv-x="400" 
d="M180 510c-100 1 -181 -101 -164 -196c-59 -125 -60 -297 78 -309c57 -6 109 17 150 55c13 -11 26 -21 41 -30c34 -18 80 -24 109 7c7 6 -2 19 -10 13c-47 -31 -86 -3 -122 29c34 39 57 89 65 138c14 96 -1 267 -121 290c-9 2 -18 2 -26 3zM185 492
c117 0 135 -165 122 -251c-8 -50 -30 -104 -67 -142c-7 6 -14 12 -20 17c-25 19 -85 53 -102 9c-5 -14 19 -25 25 -11c5 11 43 -5 77 -34c-22 -17 -47 -29 -77 -33c-143 -19 -121 233 19 352c16 14 31 14 43 4c4 -4 12 -6 17 -2c3 2 6 5 9 7c7 7 10 17 7 26
c-17 50 -71 69 -141 -2c-25 -26 -46 -55 -64 -86c3 77 70 146 152 146z" />
    <glyph glyph-name="R" unicode="R" horiz-adv-x="375" 
d="M68 472c-9 0 -18 -5 -24 -15c-32 -50 -45 -173 -46 -231c-2 -79 17 -154 49 -225c7 -15 28 -6 28 7c2 45 8 92 16 138c30 -50 59 -104 114 -125c55 -22 123 14 131 74c0 4 -6 7 -8 4c-18 -22 -34 -44 -63 -51c-67 -17 -105 77 -140 118c58 -4 123 32 158 74
c41 48 102 186 9 217c-35 12 -74 -11 -99 -34c-61 -55 -89 -140 -109 -220c-12 3 -13 6 -19 4c2 139 25 166 33 225c9 21 -11 40 -30 40zM250 430c10 0 19 -3 25 -13c28 -44 -65 -224 -172 -217c17 78 42 177 110 218c10 6 24 12 37 12zM65 190c1 -1 3 -2 4 -3
c-1 -6 2 -8 8 -17c-4 -18 -7 -35 -11 -53c-1 24 -1 49 -1 73z" />
    <glyph glyph-name="S" unicode="S" horiz-adv-x="350" 
d="M159 478c-8 0 -15 -1 -22 -2c-174 -25 -241 -180 -145 -257c66 -54 184 -40 192 -92c6 -45 -83 -81 -144 -77c-32 3 -90 26 -59 67c4 6 -4 11 -9 7c-33 -27 -21 -93 77 -98c56 -3 156 30 160 99c3 70 -190 118 -194 177c-5 63 122 155 198 134c26 -7 48 -33 42 -60
c-13 -64 -93 -59 -141 -62c-10 0 -13 -12 -5 -17c58 -38 163 5 175 75c12 72 -64 106 -125 106z" />
    <glyph glyph-name="T" unicode="T" horiz-adv-x="370" 
d="M279 470c-10 0 -20 -4 -26 -12c-70 -3 -245 -16 -245 -17c-16 0 -16 -24 0 -23c144 1 193 -6 190 13c19 1 30 2 49 2c1 -70 8 -139 13 -209c15 -175 9 -175 19 -207c6 -15 30 -17 34 0c8 32 3 68 3 101c-2 101 2 219 -4 316c53 0 106 0 159 4c11 1 11 17 0 18
c-55 7 -112 6 -168 4c-6 6 -15 9 -24 10z" />
    <glyph glyph-name="U" unicode="U" horiz-adv-x="474" 
d="M375 486c-5 0 -9 -1 -13 -3c-29 -21 -37 -60 -47 -92c-13 -43 -24 -93 -27 -137c-34 -67 -74 -137 -130 -189c-45 -43 -77 -35 -96 26c-20 63 0 161 16 225c20 82 42 114 30 105c33 25 1 83 -34 57c-19 -14 -26 -35 -34 -57c-25 -64 -46 -150 -43 -222
c3 -60 27 -195 110 -192c41 1 72 39 94 68c34 43 62 87 85 134c1 -49 9 -99 28 -142c20 -45 67 -85 108 -40c26 29 23 33 95 176c5 9 -9 17 -14 8c-21 -43 -65 -142 -96 -168c-52 -44 -105 74 -22 344c8 27 21 51 16 80c-2 11 -14 19 -26 19z" />
    <glyph glyph-name="V" unicode="V" horiz-adv-x="342" 
d="M240 504c-62 0 -91 -167 37 -264c-17 -65 -44 -153 -88 -200c-117 -122 -139 223 -120 382c16 25 -12 51 -33 44c-27 -10 -31 -31 -35 -58c-13 -94 -9 -207 19 -297c49 -157 139 -163 194 -74c34 56 58 132 75 195c22 -15 46 -26 71 -33c12 -3 17 15 5 18
c-26 7 -50 18 -72 33c11 43 17 88 14 132c-2 37 -9 97 -46 117c-7 4 -14 5 -21 5zM242 487c7 0 14 -3 20 -9c26 -25 33 -90 33 -126c-1 -31 -6 -63 -13 -94c-67 54 -90 149 -69 205c6 14 17 24 29 24z" />
    <glyph glyph-name="W" unicode="W" horiz-adv-x="594" 
d="M417 514c-16 0 -31 -6 -43 -20c-58 -68 -27 -236 90 -298c-26 -88 -95 -239 -169 -183c-35 26 -40 85 -44 126c-5 53 0 104 9 157c7 40 -52 58 -63 17c-7 -23 -11 -48 -14 -72c-20 -49 -65 -152 -119 -149c-19 1 -28 24 -33 40c-26 96 22 230 46 308c13 41 -49 57 -63 18
c-41 -109 -98 -310 -10 -387c71 -61 138 29 177 115c0 -81 15 -174 88 -210c110 -54 181 93 214 212c36 -13 81 -19 120 8c9 7 0 23 -10 16c-33 -24 -74 -17 -105 -6c17 72 33 225 -15 281c-14 17 -35 27 -56 27zM419 498c23 1 48 -20 59 -56c21 -70 11 -155 -9 -228
c-77 41 -126 147 -99 236c10 33 29 48 49 48z" />
    <glyph glyph-name="X" unicode="X" horiz-adv-x="451" 
d="M46 476c-14 0 -27 -8 -26 -25c6 -78 60 -164 108 -234c-103 -158 -116 -175 -130 -212c-4 -8 8 -14 13 -8c35 33 47 58 139 188c25 -35 52 -68 82 -99c40 -41 85 -69 138 -32c54 39 89 94 116 152c3 6 -5 11 -8 6c-28 -51 -60 -93 -103 -132c-34 -29 -72 -37 -107 -5
c-35 33 -71 102 -92 146c113 153 179 195 192 229c4 12 -10 23 -21 20c-41 -8 -78 -60 -104 -91c-32 -39 -58 -77 -86 -118c-44 99 -51 150 -87 203c-6 8 -15 12 -24 12z" />
    <glyph glyph-name="Y" unicode="Y" horiz-adv-x="391" 
d="M94 475c-5 0 -9 -2 -14 -5c-51 -39 -82 -154 -81 -218c1 -59 22 -141 96 -137c64 3 115 77 149 125c53 76 52 110 50 78c-2 -45 -4 -87 -11 -132c-77 -33 -183 -114 -178 -198c2 -26 17 -54 41 -66c30 -15 64 -2 89 16c81 59 104 163 117 258c25 5 50 7 75 9c4 1 4 7 0 7
c-24 3 -49 1 -73 -3c10 79 13 160 5 238c-1 17 -11 23 -27 24c-35 3 -38 -69 -38 -104c-28 -75 -90 -176 -158 -214c-34 -18 -70 -9 -74 32c-2 27 1 55 5 82c12 108 43 122 54 172l-1 -1c4 17 -10 37 -26 37zM281 173c-10 -70 -24 -154 -75 -205c-46 -45 -88 -1 -76 51
c14 63 92 126 151 154z" />
    <glyph glyph-name="Z" unicode="Z" horiz-adv-x="377" 
d="M57 466c-9 0 -17 0 -26 -1c-121 -14 -72 -112 -29 -75c7 6 6 17 0 24l8 6c6 2 11 6 18 7c50 13 115 -8 191 -10c-84 -85 -110 -188 -205 -381c-7 -14 5 -37 23 -30c65 27 133 0 201 1c50 1 94 24 121 67c3 4 -3 8 -6 4c-56 -77 -185 -13 -282 -23c36 62 75 122 110 185
c75 133 56 92 133 186c10 11 2 26 -11 26c0 1 -28 3 -54 -12c-51 -1 -122 27 -192 26z" />
    <glyph glyph-name="bracketleft" unicode="[" horiz-adv-x="169" 
d="M162 468c-19 0 -36 -3 -48 -12c-31 -22 -27 -89 -29 -123c-6 -101 2 -204 9 -306c1 -11 10 -22 22 -21c31 2 75 -4 99 19c3 3 4 11 0 15c-21 15 -50 13 -77 10c1 76 6 152 11 228c9 145 4 121 4 149c0 13 -11 -1 69 3c17 0 19 22 4 28c-16 6 -41 11 -64 10z" />
    <glyph glyph-name="backslash" unicode="\" horiz-adv-x="232" 
d="M-42 469c-12 0 -25 -10 -21 -26c12 -49 93 -175 127 -229c88 -141 101 -179 136 -221c10 -13 33 1 28 16c-19 51 -45 80 -123 230c-30 58 -98 189 -133 225v-1c-4 4 -9 6 -14 6z" />
    <glyph glyph-name="bracketright" unicode="]" horiz-adv-x="117" 
d="M0 487h-6c-25 0 -51 -1 -76 -3c-20 -2 -20 -29 0 -31c23 -3 47 -3 71 -3c10 0 6 1 7 -6c-4 -6 -1 -26 0 -33c1 -47 5 -94 9 -140c6 -72 -1 -154 23 -223c-23 -2 -48 -8 -62 -25c-18 -19 29 -44 98 -10c9 5 10 17 7 25c-34 73 0 200 -23 384c-3 18 -5 40 -17 54
c-8 10 -19 11 -31 11z" />
    <glyph glyph-name="asciicircum" unicode="^" horiz-adv-x="144" 
d="M75 485h-5c-9 -2 -12 -6 -56 -55c-13 -16 9 -39 23 -23c34 40 24 29 32 38c9 -11 16 -23 28 -32c18 -15 51 4 36 28c-11 15 -36 45 -58 44z" />
    <glyph glyph-name="underscore" unicode="_" horiz-adv-x="332" 
d="M61 48c-32 1 -30 -47 0 -47c0 -1 51 -3 142 -5c99 -2 111 -2 127 9c9 5 8 16 0 22c-15 11 -25 12 -127 16c-47 2 -95 4 -142 5z" />
    <glyph glyph-name="grave" unicode="`" horiz-adv-x="84" 
d="M33 469c-5 0 -11 -2 -14 -8c-7 -13 0 -31 5 -44c27 -69 57 -38 52 -23c-6 15 -23 38 -26 56c3 12 -7 20 -17 19z" />
    <glyph glyph-name="a" unicode="a" horiz-adv-x="316" 
d="M61 342c-16 0 -32 -4 -46 -13c-127 -79 -62 -285 33 -209c26 21 42 53 57 83c2 -42 17 -92 53 -117c80 -57 129 63 150 121c3 8 -9 12 -12 4c-9 -26 -17 -52 -32 -74c-20 -31 -77 -63 -90 -8c-14 57 5 116 13 171c5 35 -35 47 -60 10c-13 21 -39 32 -66 32zM66 277
c15 0 21 -15 31 -23c-18 -38 -43 -118 -84 -114c-17 2 -19 8 -21 24c-3 33 30 93 60 109c6 2 10 4 14 4z" />
    <glyph glyph-name="b" unicode="b" horiz-adv-x="297" 
d="M52 474c-5 0 -9 -1 -14 -4c-31 -19 -34 -66 -39 -99c-13 -87 -4 -167 14 -219c11 -31 22 -70 51 -89c10 -7 20 -2 25 7c11 -24 43 -15 71 1c76 12 144 58 172 134c3 7 -9 12 -13 5c-26 -50 -66 -90 -116 -109c45 42 65 136 17 190c-57 65 -130 -18 -148 -109
c-35 191 24 227 6 272c-5 11 -15 20 -26 20zM148 278c6 0 11 -3 17 -9c22 -25 17 -72 6 -101c-12 -32 -44 -68 -56 -77c-14 2 -16 4 -22 1c-1 15 -6 31 -10 46c1 20 3 40 8 59c6 19 30 82 57 81z" />
    <glyph glyph-name="c" unicode="c" horiz-adv-x="232" 
d="M106 339c-7 0 -14 -2 -21 -4c-69 -21 -103 -106 -92 -173c10 -56 53 -121 118 -111c72 11 111 97 143 152c5 9 -10 16 -13 6c-13 -42 -44 -77 -77 -105c-20 -18 -53 -43 -81 -26c-73 43 -20 190 20 204c27 9 31 -32 28 -50c-1 -6 6 -12 12 -6c55 50 18 114 -37 113z" />
    <glyph glyph-name="d" unicode="d" horiz-adv-x="310" 
d="M214 483c-9 0 -18 -4 -25 -14c-19 -27 -27 -64 -35 -95c-14 -59 -6 -56 -14 -47c-53 57 -178 -23 -156 -161c3 -24 16 -53 41 -62c45 -15 95 64 116 108c3 -26 14 -86 29 -116c19 -39 60 -61 95 -26c28 28 61 103 75 140c2 5 -6 8 -9 3c-18 -42 -34 -66 -63 -103
c-17 -23 -45 -50 -62 -9c-18 46 -4 156 3 204c14 88 30 104 35 140c4 23 -12 38 -30 38zM98 279c10 0 20 -9 36 -25c1 -1 -23 -69 -70 -109c-12 -10 -36 -12 -40 8c-8 37 17 75 40 102c14 16 24 24 34 24z" />
    <glyph glyph-name="e" unicode="e" horiz-adv-x="218" 
d="M89 321c-9 0 -18 -2 -26 -7c-34 -20 -56 -60 -69 -96c-22 -67 0 -174 87 -174c85 1 123 99 151 163c3 6 -7 11 -10 4c-20 -49 -45 -97 -89 -128c-25 -17 -56 -25 -77 3c-17 23 -14 55 -9 85c56 -3 114 53 93 113c-8 22 -29 37 -51 37zM105 275c18 0 26 -37 0 -66
c-16 -19 -35 -22 -55 -23c6 31 17 63 39 82c6 5 11 7 16 7z" />
    <glyph glyph-name="f" unicode="f" horiz-adv-x="212" 
d="M67 448c-4 0 -9 -1 -14 -4c-71 -44 -103 -284 -55 -422c13 -34 29 -74 60 -96c24 -18 59 -17 75 12c17 30 8 82 1 114c-8 43 -31 86 -66 112c59 -7 119 -10 164 36c8 8 -5 20 -13 12c-49 -46 -114 -37 -176 -28c2 152 42 179 52 227c4 18 -10 36 -28 37zM43 162
c38 -25 62 -70 70 -116c2 -16 13 -102 -14 -98c-12 1 -24 22 -29 32c-18 38 -26 139 -27 182z" />
    <glyph glyph-name="g" unicode="g" horiz-adv-x="289" 
d="M124 354c-23 -1 -45 -14 -63 -30c-49 -42 -89 -116 -71 -182c16 -57 76 -65 113 -23c27 29 46 65 61 101c0 -2 3 -67 3 -89c-37 -14 -74 -29 -103 -53c-29 -23 -51 -58 -49 -96c7 -89 195 -123 211 152c35 19 73 39 95 68c5 11 -10 20 -15 9c-24 -23 -52 -37 -79 -53
c0 18 0 36 -1 54c0 21 6 125 -42 105c-3 -2 -6 -4 -8 -6c0 15 -14 32 -29 38c-8 3 -15 5 -23 5zM129 294c3 0 7 0 10 -1c9 -3 17 -10 26 -4c-4 -15 1 -9 -10 -39c-20 -55 -87 -169 -120 -122c-14 20 0 82 52 138c12 12 25 27 42 28zM167 107c-2 -78 -26 -180 -99 -153
c-48 18 -20 77 6 101c26 25 60 39 93 52z" />
    <glyph glyph-name="h" unicode="h" horiz-adv-x="270" 
d="M57 481c-14 0 -29 -7 -35 -22c-14 -34 -18 -73 -22 -110c-10 -86 -8 -167 45 -321c8 -23 44 -14 37 11c-5 18 -9 37 -12 56c-2 64 13 127 49 179c7 11 18 29 32 32c1 -2 1 -4 1 -7c9 -13 -4 -53 -4 -109c0 -41 17 -113 72 -109c54 4 72 85 83 125c2 9 -11 12 -13 4
c-5 -21 -12 -32 -23 -51c-7 -13 -24 -48 -42 -50c-12 -1 -21 13 -22 22c-6 48 39 238 -50 207c-40 -14 -81 -122 -91 -167c-1 26 -1 51 -1 76c5 144 15 130 24 204c2 21 -12 30 -28 30z" />
    <glyph glyph-name="i" unicode="i" horiz-adv-x="150" 
d="M52 407c-18 -1 -36 -15 -30 -39c3 -14 20 -28 40 -20c16 7 21 23 18 35c-3 16 -16 24 -28 24zM51 331c-5 0 -11 -1 -17 -3c-19 -9 -25 -40 -30 -59c-20 -69 -22 -160 29 -214c77 -81 134 100 155 146c5 11 -11 18 -15 6c-13 -35 -29 -62 -48 -94c-10 -16 -22 -42 -42 -41
c-15 1 -17 8 -21 22c-12 40 -4 120 9 167c4 13 12 26 11 39c-2 19 -15 31 -31 31z" />
    <glyph glyph-name="j" unicode="j" horiz-adv-x="135" 
d="M-92 403c-5 0 -11 -2 -16 -5c-18 -11 -21 -37 -6 -50c21 -23 61 -1 52 31c-4 15 -17 24 -30 24zM-84 330c-19 -1 -38 -20 -34 -43c7 -46 12 -93 14 -139c-29 -17 -57 -37 -78 -63c-38 -45 -65 -132 -3 -171c30 -19 67 -12 95 7c33 23 46 61 51 99c6 48 7 97 3 146
c28 12 57 26 84 38c7 3 1 13 -6 10c-25 -10 -52 -23 -79 -34c-3 37 -8 74 -15 110c2 11 -2 17 -6 23c-6 12 -16 17 -26 17zM-103 132c1 -47 2 -101 -8 -131c-8 -23 -29 -54 -58 -46c-47 12 -54 106 66 177z" />
    <glyph glyph-name="k" unicode="k" horiz-adv-x="236" 
d="M34 459c-10 0 -20 -5 -24 -17c-52 -122 -28 -353 0 -429c10 -24 48 -22 48 7c1 40 -8 64 -11 131c14 -17 42 -67 89 -65c63 3 66 89 117 109c12 5 7 23 -5 19c-21 -7 -35 -23 -46 -42c-18 -27 -47 -87 -86 -51c-12 11 -29 40 -49 60c81 55 98 127 90 120
c13 11 -8 35 -23 20c-30 -30 -41 -71 -88 -111c0 60 7 162 24 207c9 23 -14 42 -36 42z" />
    <glyph glyph-name="l" unicode="l" horiz-adv-x="160" 
d="M52 486c-13 0 -26 -8 -30 -24c-16 -71 -22 -143 -25 -215c-3 -69 -7 -141 25 -205c20 -39 68 -60 100 -21c24 29 14 41 69 186c3 7 -9 11 -12 3c-21 -55 -38 -97 -63 -150c-6 -11 -17 -37 -34 -30c-7 2 -12 19 -14 24c-7 24 -7 52 -7 77c2 104 3 211 27 313
c6 26 -16 43 -36 42z" />
    <glyph glyph-name="m" unicode="m" horiz-adv-x="415" 
d="M44 352c-6 0 -12 -2 -18 -8c-34 -36 -33 -106 -27 -152c19 -138 73 -148 77 -126c4 17 -1 32 -4 48c0 52 10 151 54 180c19 13 12 10 12 -139c0 -18 -4 -35 8 -50c4 -6 13 -10 20 -5c30 22 17 58 50 118c14 24 37 59 59 79c23 32 8 3 1 -45c-10 -60 -18 -114 5 -170
c32 -79 74 -79 101 -37c36 56 30 112 73 164c4 4 -2 11 -6 6c-41 -47 -39 -96 -73 -147c-9 -13 -24 -30 -38 -11c-5 6 -7 25 -7 32c-10 103 49 234 -20 251c-27 7 -45 -17 -59 -36c-15 -20 -32 -43 -46 -67c1 28 0 63 -16 85c-11 15 -34 24 -52 15c-14 -8 -25 -28 -33 -41
c-20 -29 -35 -66 -41 -119c-1 25 -1 58 2 86c2 24 9 46 5 69l-1 -1c-3 11 -14 21 -26 21z" />
    <glyph glyph-name="n" unicode="n" horiz-adv-x="329" 
d="M184 346c-26 0 -46 -23 -59 -43c-26 -38 -53 -89 -62 -139c-11 50 -14 103 0 151c6 20 -16 34 -33 26c-36 -17 -34 -85 -32 -119c3 -46 17 -91 43 -130c6 -8 14 -11 23 -10c10 2 18 15 14 26c-1 3 -2 7 -3 11c6 32 9 64 21 96c10 26 41 88 68 94c9 8 13 7 12 -3
c6 -16 3 -83 2 -116c-5 -194 87 -226 126 -176c34 46 32 134 77 196c3 4 -4 9 -8 5c-20 -25 -31 -53 -42 -83c-6 -19 -38 -131 -76 -100c-39 32 0 132 -15 241c-4 32 -16 69 -53 72c-1 1 -2 1 -3 1z" />
    <glyph glyph-name="o" unicode="o" horiz-adv-x="220" 
d="M66 317c-46 0 -80 -47 -68 -92c-58 -66 -20 -188 59 -174c48 9 80 62 89 110c26 8 50 21 68 40c7 7 -4 18 -11 11c-15 -16 -34 -28 -54 -35c7 55 -6 118 -59 136c-8 3 -16 4 -24 4zM62 306c41 0 84 -50 70 -134c-33 -6 -68 -1 -95 19l9 12c10 4 17 14 13 25
c-10 30 -33 22 -51 7c-4 18 0 38 15 53c11 12 25 18 39 18zM31 179c27 -21 63 -27 97 -22c-8 -33 -27 -62 -57 -74c-50 -18 -63 47 -40 96z" />
    <glyph glyph-name="p" unicode="p" horiz-adv-x="269" 
d="M39 329c-9 0 -17 -4 -22 -11c-17 -23 -18 -57 -21 -85c-10 -83 7 -195 28 -277c5 -20 34 -11 30 8c-1 5 -2 10 -2 16c2 40 -4 94 23 177c11 35 24 69 43 100c10 16 34 45 50 23c13 -17 7 -66 2 -87c-32 -2 -62 -9 -81 -40c-12 -20 -12 -49 8 -64c33 -25 102 5 126 96
c22 1 44 5 63 18c7 6 0 18 -7 12c-15 -11 -34 -16 -53 -18c17 83 -27 144 -81 113c-31 -17 -46 -56 -60 -86c-19 -41 -32 -84 -42 -128c1 122 26 177 17 217c-3 11 -12 16 -21 16zM167 183c-4 -16 -20 -56 -33 -66c-19 -14 -43 5 -37 25c10 26 42 38 70 41z" />
    <glyph glyph-name="q" unicode="q" horiz-adv-x="312" 
d="M214 341c-6 0 -13 -2 -18 -6c-10 -9 -18 -19 -25 -31c-15 26 -49 33 -78 24c-58 -18 -93 -100 -93 -156c0 -54 49 -96 97 -59c40 32 32 53 31 7c-2 -59 21 -154 83 -178c22 -9 48 -7 63 14c29 40 -5 141 -47 179c56 3 112 19 134 71c3 8 -8 11 -13 6
c-37 -48 -86 -67 -144 -61c-2 1 -4 2 -6 2c9 73 36 111 40 164c1 15 -11 24 -24 24zM119 283c21 0 20 -24 31 -31c-8 -25 -13 -47 -17 -74c-9 -12 -18 -24 -29 -34c-5 -4 -22 -20 -31 -20c-67 0 -5 154 41 159h5zM196 136h2c39 -19 61 -74 67 -114c7 -40 3 -65 -35 -54
c-15 21 -29 42 -33 79c-4 29 -4 59 -1 89z" />
    <glyph glyph-name="r" unicode="r" horiz-adv-x="258" 
d="M37 352c-3 0 -7 -1 -11 -4c-66 -45 -59 -218 9 -262c16 -10 32 4 32 19h1c-1 12 -5 22 -9 33c6 68 37 169 61 164c7 -2 16 -16 22 -20c25 -14 65 -10 83 20c5 11 -4 24 -16 20c-49 -14 -50 12 -76 16c-24 3 -30 -13 -38 -31c-19 -44 -31 -58 -49 -121
c-12 84 15 105 14 143c-1 12 -11 23 -23 23z" />
    <glyph glyph-name="s" unicode="s" horiz-adv-x="175" 
d="M61 339c-28 -1 -52 -23 -65 -47c-28 -54 -3 -115 32 -166c-59 -62 -25 -147 40 -140c27 4 50 25 56 51c17 62 -37 116 -33 119c33 21 64 37 101 44c9 5 0 19 -8 13c-34 -8 -69 -24 -102 -46c-16 23 -32 47 -30 75c3 49 40 19 50 49c7 24 -15 47 -38 48h-3zM37 114
c16 -21 36 -46 38 -70c1 -22 -17 -36 -38 -26c-27 14 -35 57 0 96z" />
    <glyph glyph-name="t" unicode="t" horiz-adv-x="190" 
d="M-121 484c-13 0 -26 -7 -31 -23c-3 -9 -5 -20 -7 -30c-25 5 -49 10 -74 10c-126 2 -96 -69 -69 -51c5 3 4 10 -1 12c-1 0 22 10 25 11c36 10 78 5 116 -2c-2 -10 -12 -103 -14 -167c-2 -69 3 -141 46 -199c31 -42 76 -43 102 4c33 59 38 102 78 156c5 7 -6 14 -11 7
c-63 -84 -66 -198 -117 -171c-24 12 -28 53 -30 76c-6 81 5 249 10 283c127 -15 147 49 130 43c-33 -12 -48 -35 -126 -25c1 9 3 17 6 26c8 25 -13 41 -33 40z" />
    <glyph glyph-name="u" unicode="u" horiz-adv-x="323" 
d="M31 329c-6 0 -13 -2 -18 -7c-22 -19 -24 -48 -27 -75c-18 -175 90 -249 171 -121c7 -30 25 -56 57 -65c40 -11 68 22 90 50c25 33 39 60 55 98c2 6 -7 9 -10 4c-13 -23 -90 -162 -123 -108c-21 34 0 139 -1 178c6 27 -39 58 -56 23c-20 -41 -21 -96 -18 -142
c-15 -29 -38 -64 -66 -64c-36 -1 -33 75 -34 99c-2 66 14 82 4 112c-4 12 -14 18 -24 18z" />
    <glyph glyph-name="v" unicode="v" horiz-adv-x="241" 
d="M140 356c-37 0 -22 -98 35 -137c-4 -58 -34 -167 -88 -144c-25 10 -28 51 -32 75c-9 60 -2 119 1 179c1 23 -33 33 -44 12c-38 -74 -29 -165 4 -239c12 -30 31 -62 66 -68c31 -5 58 15 74 40c24 38 35 87 36 136c21 -13 42 -21 69 -13c11 7 1 23 -9 17
c-15 -7 -46 5 -60 17c-1 36 -11 117 -46 125h-6zM143 338c6 0 14 -15 17 -21c11 -23 16 -49 16 -76c-5 3 -9 7 -13 12c-17 20 -26 53 -26 60c0 19 3 25 6 25z" />
    <glyph glyph-name="w" unicode="w" horiz-adv-x="409" 
d="M307 350c-13 0 -26 -5 -36 -15c-45 -44 6 -131 65 -152c-13 -45 -49 -108 -103 -91c-51 17 -32 113 -31 152c2 37 -54 33 -57 4c-6 -18 -11 -38 -12 -59c-6 -7 -11 -12 -14 -16c-19 -19 -58 -42 -71 -6c-12 34 9 102 16 127c5 19 -17 38 -35 27
c-58 -36 -69 -157 -10 -198c38 -26 83 -1 113 34c9 -153 184 -159 227 21c19 -2 39 5 57 23c7 8 -4 19 -12 12c-13 -11 -27 -16 -41 -15c6 41 2 117 -31 143c-8 6 -16 9 -25 9zM301 331c5 0 10 -2 15 -6c16 -10 19 -23 23 -40c6 -28 6 -56 2 -83c-55 19 -89 90 -57 120
c7 6 12 9 17 9z" />
    <glyph glyph-name="x" unicode="x" horiz-adv-x="283" 
d="M177 329c-2 0 -5 -1 -7 -3c-17 -13 -21 -20 -98 -111c-11 32 -18 71 -38 97c-17 23 -54 16 -55 -15c-1 -24 9 -49 17 -72c7 -23 16 -46 28 -68c-10 -11 -19 -23 -28 -35c-9 -11 -27 -25 -21 -41c5 -12 23 -7 19 5c-3 8 27 38 42 53c23 -33 56 -60 94 -73
c104 -37 116 87 171 138c6 6 -3 14 -9 9c-45 -39 -78 -175 -159 -111c-28 21 -41 57 -53 89c46 55 81 84 105 124c4 8 -2 14 -8 14z" />
    <glyph glyph-name="y" unicode="y" horiz-adv-x="336" 
d="M36 339c-3 0 -6 -1 -10 -2c-48 -12 -97 -166 -31 -220c40 -33 90 -4 117 30c17 21 31 44 43 68c3 -32 8 -64 12 -96c-241 -104 -164 -258 -59 -240c68 13 114 82 126 146c7 36 4 72 0 108c45 21 85 31 117 70c6 7 -4 16 -9 9c-30 -37 -67 -46 -110 -65
c-9 74 -15 128 -42 177c-8 14 -27 8 -31 -4c-2 1 -6 -38 -6 -56c-12 -30 -58 -117 -97 -124c-22 -4 -27 9 -28 28c0 16 1 32 3 48c5 27 22 72 25 77c21 10 8 46 -20 46zM169 105c7 -53 9 -112 -19 -157c-24 -40 -93 -69 -120 -14c-21 44 16 92 48 119c27 23 59 38 91 52z
" />
    <glyph glyph-name="z" unicode="z" horiz-adv-x="288" 
d="M125 351c-9 0 -19 -1 -29 -3c-105 -21 -147 -153 -79 -143c11 2 9 18 0 21c-28 9 14 65 23 73c18 17 45 30 70 28c62 -7 -11 -70 -37 -131c-9 -20 5 -45 29 -38c7 2 18 -7 26 -14c-27 -8 -54 -16 -78 -28c-58 -29 -112 -100 -60 -161c56 -65 151 -26 186 41
c25 46 29 102 3 146c47 14 94 19 125 59c7 8 -5 20 -12 12c-31 -40 -76 -43 -122 -57c-12 15 -18 20 -34 30c71 76 72 165 -11 165zM138 131c24 -34 22 -91 -17 -134c-67 -74 -158 -14 -121 52c28 50 86 68 138 82z" />
    <glyph glyph-name="braceleft" unicode="{" horiz-adv-x="218" 
d="M240 498c-27 0 -58 -17 -77 -61c-14 -32 -16 -68 -15 -103c1 -23 14 -109 -27 -108c-12 1 -20 -14 -14 -24c49 -77 26 -130 51 -186c20 -44 80 -60 113 -20c3 4 0 10 -6 9c-29 -4 -65 -18 -68 24c-2 29 5 58 3 88c-2 33 -14 72 -40 93c26 23 36 64 41 98
c4 34 3 157 63 129c12 -6 24 1 25 15c3 27 -21 46 -49 46z" />
    <glyph glyph-name="bar" unicode="|" horiz-adv-x="118" 
d="M104 487c-12 0 -23 -7 -24 -24c-5 -82 1 -165 6 -246c6 -79 8 -161 23 -239c4 -17 28 -12 29 4c3 80 -6 161 -6 240c-1 20 1 242 -2 241c0 14 -13 23 -26 24z" />
    <glyph glyph-name="braceright" unicode="}" horiz-adv-x="148" 
d="M-70 484c-12 0 -24 -3 -35 -11c-19 -14 -31 -47 -6 -62c7 -5 15 -1 20 5c8 11 6 25 24 22c15 -3 21 -23 24 -35c14 -52 -3 -140 46 -178c-16 -27 -15 -67 -6 -95s23 -61 9 -90c-16 -32 -53 -31 -83 -29c-9 0 -11 -12 -5 -16c46 -30 111 -7 128 45c10 31 3 65 4 97
c0 32 9 57 15 87c4 15 -11 31 -26 26l-9 -3c-12 6 -17 63 -17 66c-2 54 2 120 -39 155c-13 10 -28 16 -44 16z" />
    <glyph glyph-name="asciitilde" unicode="~" horiz-adv-x="185" 
d="M75 454c-21 0 -38 -9 -50 -26c-4 -5 -1 -14 4 -17l6 -3c7 -4 17 3 16 11c28 21 61 -13 91 -15c22 -1 37 12 36 34c0 8 -10 10 -14 4c-14 -21 -68 11 -89 12z" />
    <glyph glyph-name="exclamdown" unicode="&#xa1;" horiz-adv-x="517" 
d="M469 390c-16 1 -29 -15 -25 -39c4 -21 26 -30 37 -15c3 3 5 6 6 10c2 5 4 9 5 13c3 12 -3 24 -14 29c-3 1 -6 2 -9 2zM473 315c-12 0 -24 -6 -26 -20c-6 -42 -3 -85 -1 -128c1 -41 -2 -88 11 -127c7 -25 48 -29 54 0c8 41 1 86 -1 127c-2 43 -1 87 -9 128
c-3 13 -15 20 -28 20z" />
    <glyph glyph-name="cent" unicode="&#xa2;" horiz-adv-x="599" 
d="M497 404c-5 0 -10 -4 -11 -10v-32c-114 -7 -91 -278 4 -273c0 -12 2 -24 5 -35c3 -7 12 -7 14 0c4 13 5 28 4 42c35 20 51 81 49 116c0 6 -10 10 -13 3c-10 -22 -14 -62 -37 -76c-1 -1 -2 118 -3 181c24 -7 24 -27 27 -51c2 -16 27 -17 25 0c-3 40 -14 77 -53 90
c-1 9 -1 18 -2 28c2 4 1 6 -2 12c-1 4 -4 5 -7 5zM486 287c1 -23 0 -10 3 -122c-14 34 -18 80 -3 122z" />
    <glyph glyph-name="sterling" unicode="&#xa3;" horiz-adv-x="714" 
d="M577 464c-4 0 -9 -1 -13 -2c-86 -18 -80 -143 -66 -230c-19 -3 -37 -6 -56 -10c-11 -2 -6 -18 5 -16c18 3 36 5 54 7c6 -28 13 -57 15 -85c-16 4 -32 2 -49 -10c-41 -31 -17 -135 42 -103c18 10 30 30 37 52c26 -19 50 -41 84 -43c29 -3 58 7 74 32c5 9 -7 18 -14 11
c-41 -40 -87 12 -135 42c5 36 3 72 0 107c23 0 48 -4 69 2c5 1 6 8 2 11c-22 10 -49 9 -73 7c-5 37 -17 139 11 165c36 34 50 -78 58 -93c4 -9 15 -9 21 -3c43 39 1 157 -66 159zM491 95c6 0 14 -2 25 -8l-6 -24c-7 -19 -29 -37 -40 -8c-5 14 -1 40 21 40z" />
    <glyph glyph-name="currency" unicode="&#xa4;" horiz-adv-x="681" 
d="M438 383c-3 0 -6 -2 -6 -5c0 -15 11 -27 18 -39c8 -12 15 -26 24 -37c-39 -61 -56 -158 -9 -214c-36 -49 -23 -71 -14 -62c12 11 11 26 26 50c39 -33 85 -20 120 8c23 -30 28 -41 38 -48c7 -4 23 4 -25 60c61 59 80 178 24 239c16 18 27 21 27 33c0 3 -2 5 -4 6
c-13 4 -27 -12 -38 -26c-37 28 -80 18 -110 -10c-8 -4 -16 -11 -23 -19c-4 12 -11 23 -18 34c-7 12 -15 26 -29 30h-1zM569 340c13 0 25 -5 36 -13c0 -5 5 -9 10 -9c63 -70 -1 -219 -72 -225c-74 -6 -51 141 -14 188c4 -3 8 -8 11 -5c16 17 26 42 3 58c9 4 18 6 26 6z" />
    <glyph glyph-name="yen" unicode="&#xa5;" horiz-adv-x="764" 
d="M726 467c-6 0 -11 -2 -16 -6v1c-28 -32 -36 -69 -42 -110c-5 -31 -9 -62 -12 -93c-20 -36 -47 -73 -81 -90c-14 -7 -35 -14 -47 -1c-8 8 -9 22 -11 33c-20 98 19 189 23 225c11 19 -19 53 -41 31c-43 -42 -55 -151 -54 -208c0 -31 1 -67 22 -92c17 -20 41 -33 68 -32
c50 4 93 57 119 98c-1 -22 -1 -43 1 -64c-15 -4 -44 -13 -37 -31c4 -10 19 -6 17 5c0 0 11 2 23 5c1 -9 2 -18 4 -27c-15 -4 -30 -8 -41 -13c-14 -5 -9 -22 1 -22c12 -3 30 4 45 9c5 -25 15 -49 35 -68c9 -10 25 2 18 14c-10 19 -12 41 -11 63c18 2 35 4 51 10c4 2 5 9 0 10
c-14 5 -31 6 -49 4c2 17 2 15 3 29c14 0 28 0 40 5c12 4 -5 18 -38 18c6 74 7 114 19 180c7 36 14 68 6 104c-2 9 -8 13 -15 13z" />
    <glyph glyph-name="brokenbar" unicode="&#xa6;" horiz-adv-x="504" 
d="M478 472h-2c-37 -2 -33 -55 -34 -82c-2 -39 -11 -96 8 -131c6 -13 25 -11 32 0c23 38 11 140 12 184c5 13 0 29 -16 29zM465 204c-3 0 -6 -1 -9 -3c-19 -17 -16 -52 -16 -76c-1 -27 -2 -60 11 -85c4 -7 17 -8 21 0c12 25 10 58 11 85c1 25 8 57 -11 76c-2 2 -5 3 -7 3z
" />
    <glyph glyph-name="section" unicode="&#xa7;" horiz-adv-x="677" 
d="M522 471c-97 -1 -199 -117 -94 -181c-35 -52 -18 -129 90 -170c21 -7 75 -18 39 -47c-40 -31 -103 -41 -141 -4c-11 11 -28 -2 -21 -15c24 -43 75 -51 119 -40c39 11 106 40 92 92c-8 32 -44 39 -80 61c77 10 126 88 19 125c-24 9 -56 16 -61 20c-6 3 -12 5 -17 5
c-29 11 -54 23 -49 53c3 18 17 31 31 41c72 54 135 17 131 -26c-1 -12 -9 -20 -13 -31c-3 -8 4 -17 13 -17c34 -1 59 82 -3 119c-17 10 -36 15 -55 15zM481 267c28 -8 70 -21 71 -32c2 -11 -43 -14 -49 -13c-10 0 -19 2 -28 4c-4 15 -2 29 6 41z" />
    <glyph glyph-name="dieresis" unicode="&#xa8;" horiz-adv-x="580" 
d="M553 466c-1 0 -3 -1 -4 -1c-13 -2 -18 -11 -22 -23c-5 -18 16 -31 30 -20c28 10 17 44 -4 44zM468 464c-9 0 -18 -5 -25 -16c-10 -16 2 -38 14 -42c19 -11 46 14 39 37c-3 13 -15 21 -28 21z" />
    <glyph glyph-name="copyright" unicode="&#xa9;" horiz-adv-x="771" 
d="M546 410c-31 0 -66 -12 -100 -40c-132 -111 -50 -368 108 -342c82 13 140 96 150 175c10 71 -24 146 -86 179c-17 17 -42 28 -72 28zM553 355c8 0 17 -1 25 -3c19 -4 46 -19 53 -10c146 -142 -33 -365 -155 -273c-98 74 -47 286 77 286zM553 318c-32 0 -67 -28 -74 -104
c-9 -112 89 -157 124 -65c4 10 -11 14 -17 7c-5 -7 -12 -19 -19 -24c-31 -17 -34 9 -36 24c-5 49 15 73 23 89c8 -9 11 -11 16 -17c4 -5 13 -5 18 0c39 45 5 90 -35 90z" />
    <glyph glyph-name="ordfeminine" unicode="&#xaa;" horiz-adv-x="606" 
d="M494 472h-2c-27 -2 -48 -34 -50 -60c-3 -38 47 -83 95 10c36 -48 80 -14 62 -8c-22 7 -43 8 -53 33c-3 7 -14 10 -18 2c-7 -12 -20 -41 -33 -45c-3 -5 -6 -4 -7 3c-6 5 -6 11 1 17c0 1 10 15 11 11c3 -8 12 -9 17 -2c15 19 -1 40 -23 39z" />
    <glyph glyph-name="guillemotleft" unicode="&#xab;" horiz-adv-x="664" 
d="M557 381c-4 0 -8 -1 -12 -4c-23 -18 -38 -44 -56 -68c-17 -25 -38 -49 -45 -78c-3 -12 3 -24 15 -27c37 -11 55 -52 90 -65c13 -6 24 9 21 21c-8 33 -41 49 -69 66c13 13 24 28 35 44c17 24 38 50 44 80c3 14 -9 31 -23 31zM642 359c-5 0 -9 -2 -13 -5
c-32 -28 -59 -67 -80 -103c-5 -9 -2 -22 7 -28c46 -25 62 -58 86 -66c7 -2 14 3 14 10c-1 32 -33 58 -60 77c21 26 43 53 59 81c4 3 6 7 6 12v4c1 12 -9 19 -19 18z" />
    <glyph glyph-name="logicalnot" unicode="&#xac;" horiz-adv-x="732" 
d="M682 265c-34 0 -92 -7 -190 -10c-10 2 -21 2 -33 0c-26 -3 -27 -39 0 -41c78 -6 199 11 224 10c-4 -14 -9 -32 -9 -60c0 -21 30 -25 36 -5c6 17 8 34 11 51c2 11 6 24 3 35c-4 16 -15 20 -42 20z" />
    <glyph glyph-name="softhyphen" unicode="&#xad;" horiz-adv-x="223" 
 />
    <glyph glyph-name="registered" unicode="&#xae;" horiz-adv-x="745" 
d="M609 446c-9 0 -18 -2 -28 -5c-4 -2 -5 -10 0 -11c37 -8 71 -22 91 -56c59 -103 -32 -292 -137 -265c-103 26 -91 209 -9 257c25 15 73 26 100 11c12 -6 20 9 10 16c-20 15 -40 38 -94 28c-111 -21 -156 -167 -105 -270c34 -68 108 -94 174 -54c65 39 102 119 104 193
c2 60 -37 157 -106 156zM529 334c-6 0 -12 -4 -14 -12c-11 -47 -13 -119 13 -161c7 -11 27 -8 26 7c2 22 -2 23 1 43c26 -9 52 -26 79 -27c5 -1 9 6 6 10c-11 15 -30 25 -50 33c80 45 14 137 -35 46c-10 -19 -3 -22 -7 43c1 10 -9 18 -19 18zM596 280c6 0 7 -2 3 -7
c-5 -10 -18 -22 -36 -29c3 7 12 30 17 34c7 1 12 2 16 2z" />
    <glyph glyph-name="macron" unicode="&#xaf;" horiz-adv-x="758" 
d="M496 457h-35c-27 -1 -29 -35 -6 -44c21 -9 39 -8 58 -2c177 1 190 -1 226 7c16 4 16 29 0 32c-43 10 -91 6 -136 6c-35 0 -71 1 -107 1z" />
    <glyph glyph-name="degree" unicode="&#xb0;" horiz-adv-x="543" 
d="M464 472c-2 0 -5 -1 -7 -2c-30 -15 -26 -57 -2 -76c28 -20 69 -9 77 26c8 36 -28 60 -55 46c-3 4 -8 6 -13 6zM492 436c3 0 5 -1 7 -3c3 -5 1 -11 -3 -14c-11 -9 -30 4 -28 17c7 -5 17 0 24 0z" />
    <glyph glyph-name="plusminus" unicode="&#xb1;" horiz-adv-x="658" 
d="M514 342c-8 0 -17 -4 -20 -13c-7 -21 -8 -45 -7 -68c-13 -3 -26 -6 -38 -9c-19 -6 -11 -35 8 -30c10 3 20 6 30 8c0 -30 -3 -62 10 -90c5 -10 23 -10 28 0c15 30 10 66 11 99c20 3 42 2 59 14c4 3 4 9 0 11c-17 11 -38 9 -58 6c0 12 0 24 -2 35c5 7 0 11 -3 16
c-1 2 -1 4 -2 6c-1 10 -8 14 -16 15zM524 93c-14 0 -27 -1 -39 -3c-30 -6 -38 -47 -4 -50c11 -1 16 10 14 18c126 2 133 -1 152 10c5 3 5 11 0 14c-21 13 -49 9 -73 10c-16 0 -33 1 -50 1z" />
    <glyph glyph-name="twosuperior" unicode="&#xb2;" horiz-adv-x="643" 
d="M522 496c-21 0 -42 -10 -51 -30c-13 -28 0 -59 28 -71c22 -8 32 27 10 35c-8 4 -8 18 -3 24c16 19 84 -2 30 -116c-42 21 -87 27 -107 -13c-26 -50 62 -114 124 -26c19 -14 37 -29 56 -41c7 -4 16 4 11 11c-9 14 -29 34 -54 51c31 56 46 139 -16 169c-9 5 -18 7 -28 7z
M478 333c15 0 33 -8 46 -16c-26 -41 -59 -41 -73 -24c-16 18 4 38 24 40h3z" />
    <glyph glyph-name="threesuperior" unicode="&#xb3;" horiz-adv-x="596" 
d="M506 475c-21 0 -43 -12 -54 -37c-10 -20 21 -38 30 -18c14 29 45 18 50 -10c5 -24 -9 -47 -17 -69c-7 -18 17 -28 30 -17c15 13 16 -24 6 -34c-26 -23 -68 -15 -99 -12c-6 1 -10 -7 -7 -11c19 -25 42 -32 73 -28c83 10 101 99 44 117c27 74 -15 118 -56 119z" />
    <glyph glyph-name="acute" unicode="&#xb4;" horiz-adv-x="493" 
d="M474 462c-8 1 -15 -4 -15 -14c0 -43 -17 -50 -15 -74c1 -4 3 -8 8 -8c39 0 45 58 36 86c-2 7 -8 10 -14 10z" />
    <glyph glyph-name="mu" unicode="&#xb5;" horiz-adv-x="695" 
d="M460 382c-6 0 -13 -4 -15 -12c-6 -27 -1 -56 1 -83c14 -189 12 -221 26 -275c6 -23 37 -16 38 5c4 43 -1 88 -6 132c25 -17 52 -15 72 2c23 19 35 52 45 81c5 -65 9 -145 37 -195c7 -11 29 -11 31 4c7 54 -6 111 -11 164c-5 54 -4 112 -19 165c-4 16 -29 11 -28 -3
c-9 -29 -11 -60 -11 -92c-8 -25 -17 -50 -29 -73c-13 -25 -32 -49 -63 -38c-12 4 -21 13 -28 23c-7 63 -16 190 -25 187c-3 5 -9 8 -15 8z" />
    <glyph glyph-name="paragraph" unicode="&#xb6;" horiz-adv-x="822" 
d="M616 478c-22 0 -45 -5 -68 -16c-60 -29 -108 -95 -105 -163c3 -60 41 -116 97 -138c54 -21 31 16 44 -59c-12 -1 -25 -2 -37 -4c-12 -3 -13 -21 -3 -26c7 -5 14 -9 21 -14c8 -5 18 4 16 12h10c6 -19 13 -37 24 -53c6 -9 23 -10 25 3c3 17 3 35 2 53c11 1 22 1 33 2
c5 -20 13 -40 22 -58c7 -11 24 -5 24 7c1 17 0 34 -2 51c33 -2 69 -4 97 8c4 3 4 10 0 12c-27 15 -66 14 -101 12c-16 119 -16 87 -2 113c3 6 -5 12 -10 7c-1 0 -2 -1 -3 -2c-3 45 -3 91 -9 136c-2 17 -28 24 -32 4c-10 -56 -8 -114 -2 -170c-9 -5 -19 -8 -28 -11
c-5 58 -3 118 -11 177c-2 18 -29 26 -35 5c-14 -60 -12 -123 -7 -184c-79 15 -122 109 -70 189c31 48 105 89 159 51c48 -34 50 -104 56 -156c2 -10 16 -14 19 -3c29 127 -36 215 -124 215zM659 168c3 -20 5 -41 9 -62c-10 0 -19 0 -29 -1c-2 18 -4 35 -7 52
c10 3 19 7 27 11z" />
    <glyph glyph-name="periodcentered" unicode="&#xb7;" horiz-adv-x="494" 
d="M459 296c-4 0 -9 -1 -14 -4c-25 -16 -8 -67 22 -54c10 4 17 15 14 26c4 16 -7 32 -22 32z" />
    <glyph glyph-name="cedilla" unicode="&#xb8;" horiz-adv-x="597" 
d="M530 148c-4 0 -8 -2 -11 -6c-12 -24 -17 -48 -14 -75c1 -10 12 -19 22 -12c11 7 27 3 33 -9c10 -18 -6 -36 -22 -43c-25 -10 -65 4 -86 21c-6 5 -15 -3 -9 -9c23 -25 42 -46 79 -45c26 0 53 16 65 40c19 38 -17 84 -55 78c1 14 4 27 11 40c5 10 -4 20 -13 20z" />
    <glyph glyph-name="onesuperior" unicode="&#xb9;" horiz-adv-x="487" 
d="M465 468c-10 0 -20 -7 -20 -19c-1 -128 -3 -151 9 -175c4 -8 17 -8 21 0c13 25 11 50 9 175c0 12 -10 19 -19 19z" />
    <glyph glyph-name="ordmasculine" unicode="&#xba;" horiz-adv-x="540" 
d="M468 463c-12 0 -23 -5 -27 -19c-1 -4 1 -8 4 -9c0 -1 0 -1 -1 -1c-9 -32 -19 -70 12 -94c23 -19 55 -12 67 15s7 66 -12 88c-9 10 -27 20 -43 20zM470 435c9 0 17 -2 24 -12c10 -13 13 -35 9 -50c-6 -23 -27 -25 -39 -5c-14 24 3 59 0 67h6z" />
    <glyph glyph-name="guillemotright" unicode="&#xbb;" horiz-adv-x="660" 
d="M540 388c-9 -1 -18 -14 -10 -23c62 -85 96 -103 86 -133c-14 -44 -49 -81 -66 -124c-4 -11 11 -18 18 -11c21 20 36 44 50 69c12 22 34 51 36 77c1 24 -21 42 -35 59c-22 27 -45 55 -69 81c-3 3 -6 5 -10 5zM453 359c-12 -1 -20 -16 -9 -24c23 -31 51 -58 77 -86l-46 -75
c-14 -22 -37 -48 -35 -75c0 -8 7 -12 14 -9c25 12 37 45 51 67c18 29 35 57 53 86c4 7 2 16 -3 21c-30 31 -58 65 -92 91c-3 3 -7 4 -10 4z" />
    <glyph glyph-name="onequarter" unicode="&#xbc;" horiz-adv-x="712" 
d="M499 461c-5 0 -10 -3 -13 -7c0 1 -4 -8 -4 -10c-8 -13 -25 -23 -38 -29c-12 -6 -1 -23 10 -18c9 4 16 8 22 13v-26c0 -26 -1 -54 7 -79c5 -16 32 -19 35 0c4 26 1 52 0 79c-1 24 2 48 -9 70c-2 5 -6 7 -10 7zM608 453c-5 0 -9 -2 -12 -8c-27 -58 -36 -128 -48 -191
c-11 -63 -29 -129 -33 -193c-1 -10 12 -10 15 -2c25 60 37 128 55 191c11 37 37 135 38 174c3 4 3 6 2 13c0 10 -8 16 -17 16zM659 308c-4 0 -7 -1 -10 -6c-22 -45 -44 -91 -57 -139c-3 -9 6 -18 15 -15c18 5 38 9 57 16c0 -33 -8 -72 11 -94c3 -3 8 -2 11 0
c20 20 14 57 16 114c1 0 2 1 3 2c2 2 1 6 -2 6c-3 1 4 36 -7 73c-3 12 -19 11 -22 0c-8 -23 -9 -49 -10 -75c-13 -3 -26 -7 -39 -11c15 37 29 74 46 111c5 9 -4 18 -12 18z" />
    <glyph glyph-name="onehalf" unicode="&#xbd;" horiz-adv-x="698" 
d="M492 450c-5 0 -10 -3 -13 -6c-12 -17 -24 -33 -36 -49c-7 -9 8 -21 15 -12l11 11c-2 -17 -2 -35 -2 -52c-1 -24 -8 -62 13 -79c3 -3 7 -4 11 -2c25 15 22 56 23 81c1 35 1 70 -13 102c-2 4 -5 6 -9 6zM609 437c-20 0 -24 -30 -29 -45c-12 -38 -22 -76 -33 -115
c-20 -78 -48 -157 -63 -236c-3 -14 15 -18 20 -6c25 63 40 131 61 196c53 167 46 170 54 186c7 4 5 17 -4 20c-2 0 -4 1 -6 0zM626 242c-10 0 -21 -5 -29 -16c-10 -14 14 -29 23 -16c26 19 19 -53 2 -93c-52 2 -77 -47 -54 -69c23 -23 58 9 76 38c13 -2 26 -6 38 -8
c7 -1 16 8 8 14c-9 7 -21 14 -34 19c12 26 17 56 15 82c-1 25 -23 49 -45 49z" />
    <glyph glyph-name="threequarters" unicode="&#xbe;" horiz-adv-x="787" 
d="M643 449c-7 0 -14 -4 -17 -13c-22 -69 -38 -139 -54 -209c-16 -67 -36 -135 -44 -203c-2 -14 18 -15 22 -3c22 66 34 136 53 203c18 68 40 135 58 203c3 13 -7 22 -18 22zM506 439c-21 0 -40 -18 -32 -42c4 -10 17 -15 26 -6c4 3 6 6 7 10v-15c-1 -8 -13 -37 -21 -62
c-5 -15 10 -26 23 -23l-9 -21c-15 -3 -28 3 -44 9c-13 5 -21 -13 -13 -21c26 -27 72 -36 96 -2c16 22 9 49 -10 63c13 33 30 77 0 102c-7 6 -15 8 -23 8zM740 314c-4 0 -9 -3 -12 -7c-27 -45 -45 -98 -66 -146c-7 -14 4 -27 19 -25c21 4 40 0 60 -2c3 -54 -2 -93 16 -118
c4 -5 11 -5 14 0c17 26 9 68 8 98c-1 25 -1 80 -10 107c-3 11 -22 13 -24 0c-4 -18 -4 -38 -4 -57c-9 4 -25 5 -35 6c22 39 42 83 49 125c3 11 -6 19 -15 19z" />
    <glyph glyph-name="questiondown" unicode="&#xbf;" horiz-adv-x="641" 
d="M561 413c-2 0 -4 0 -6 -1c-6 -3 -11 -5 -15 -11c-4 -7 -6 -21 -1 -32c3 -10 7 -17 17 -19c10 -1 15 5 20 12c11 11 14 34 2 44c-5 4 -11 7 -17 7zM559 334c-7 0 -13 -2 -19 -7c-22 -18 -9 -47 -13 -71c-6 -30 -27 -40 -47 -58c-36 -34 -55 -84 -40 -132
c14 -45 62 -77 109 -63c48 14 73 71 80 118c11 22 -33 59 -47 18c-11 -30 -29 -99 -74 -87c-49 14 -39 87 -10 115c29 27 73 21 90 63c11 28 17 87 -17 101c-4 2 -8 3 -12 3z" />
    <glyph glyph-name="Agrave" unicode="&#xc0;" horiz-adv-x="528" 
d="M408 484c-8 0 -17 -4 -25 -14c-10 -3 -14 -30 -112 -177c-89 -4 -185 -29 -251 -89c-39 -37 -96 -138 -22 -172c77 -36 161 70 200 121c31 39 58 80 85 122c23 0 46 -1 69 -5c0 -52 13 -204 27 -251c7 -24 45 -20 44 6c-2 73 -16 76 -5 232c31 -9 63 -20 94 -33
c7 -2 11 9 5 13c-30 18 -63 31 -98 40c2 29 4 57 7 86c4 31 22 81 2 109c-5 7 -13 12 -20 12zM363 407c-4 -41 -9 -73 -10 -117c-20 2 -40 3 -59 3c24 38 46 76 69 114zM259 275c-46 -68 -167 -249 -246 -229c-79 21 -18 214 246 229zM140 216v-1v1zM386 610
c-5 0 -11 -2 -14 -8c-7 -13 0 -31 5 -44c27 -69 57 -38 52 -23c-6 15 -23 38 -26 56c3 12 -7 20 -17 19z" />
    <glyph glyph-name="Aacute" unicode="&#xc1;" horiz-adv-x="528" 
d="M408 484c-8 0 -17 -4 -25 -14c-10 -3 -14 -30 -112 -177c-89 -4 -185 -29 -251 -89c-39 -37 -96 -138 -22 -172c77 -36 161 70 200 121c31 39 58 80 85 122c23 0 46 -1 69 -5c0 -52 13 -204 27 -251c7 -24 45 -20 44 6c-2 73 -16 76 -5 232c31 -9 63 -20 94 -33
c7 -2 11 9 5 13c-30 18 -63 31 -98 40c2 29 4 57 7 86c4 31 22 81 2 109c-5 7 -13 12 -20 12zM363 407c-4 -41 -9 -73 -10 -117c-20 2 -40 3 -59 3c24 38 46 76 69 114zM259 275c-46 -68 -167 -249 -246 -229c-79 21 -18 214 246 229zM140 216v-1v1zM418 608
c-8 1 -15 -4 -15 -14c0 -43 -17 -50 -15 -74c1 -4 3 -8 8 -8c39 0 45 58 36 86c-2 7 -8 10 -14 10z" />
    <glyph glyph-name="Acircumflex" unicode="&#xc2;" horiz-adv-x="528" 
d="M408 484c-8 0 -17 -4 -25 -14c-10 -3 -14 -30 -112 -177c-89 -4 -185 -29 -251 -89c-39 -37 -96 -138 -22 -172c77 -36 161 70 200 121c31 39 58 80 85 122c23 0 46 -1 69 -5c0 -52 13 -204 27 -251c7 -24 45 -20 44 6c-2 73 -16 76 -5 232c31 -9 63 -20 94 -33
c7 -2 11 9 5 13c-30 18 -63 31 -98 40c2 29 4 57 7 86c4 31 22 81 2 109c-5 7 -13 12 -20 12zM363 407c-4 -41 -9 -73 -10 -117c-20 2 -40 3 -59 3c24 38 46 76 69 114zM259 275c-46 -68 -167 -249 -246 -229c-79 21 -18 214 246 229zM140 216v-1v1zM407 608h-5
c-9 -2 -12 -6 -56 -55c-13 -16 9 -39 23 -23c34 40 24 29 32 38c9 -11 16 -23 28 -32c18 -15 51 4 36 28c-11 15 -36 45 -58 44z" />
    <glyph glyph-name="Atilde" unicode="&#xc3;" horiz-adv-x="528" 
d="M408 484c-8 0 -17 -4 -25 -14c-10 -3 -14 -30 -112 -177c-89 -4 -185 -29 -251 -89c-39 -37 -96 -138 -22 -172c77 -36 161 70 200 121c31 39 58 80 85 122c23 0 46 -1 69 -5c0 -52 13 -204 27 -251c7 -24 45 -20 44 6c-2 73 -16 76 -5 232c31 -9 63 -20 94 -33
c7 -2 11 9 5 13c-30 18 -63 31 -98 40c2 29 4 57 7 86c4 31 22 81 2 109c-5 7 -13 12 -20 12zM363 407c-4 -41 -9 -73 -10 -117c-20 2 -40 3 -59 3c24 38 46 76 69 114zM259 275c-46 -68 -167 -249 -246 -229c-79 21 -18 214 246 229zM140 216v-1v1zM374 562
c-21 0 -38 -9 -50 -26c-4 -5 -1 -14 4 -17l6 -3c7 -4 17 3 16 11c28 21 61 -13 91 -15c22 -1 37 12 36 34c0 8 -10 10 -14 4c-14 -21 -68 11 -89 12z" />
    <glyph glyph-name="Adieresis" unicode="&#xc4;" horiz-adv-x="528" 
d="M408 484c-8 0 -17 -4 -25 -14c-10 -3 -14 -30 -112 -177c-89 -4 -185 -29 -251 -89c-39 -37 -96 -138 -22 -172c77 -36 161 70 200 121c31 39 58 80 85 122c23 0 46 -1 69 -5c0 -52 13 -204 27 -251c7 -24 45 -20 44 6c-2 73 -16 76 -5 232c31 -9 63 -20 94 -33
c7 -2 11 9 5 13c-30 18 -63 31 -98 40c2 29 4 57 7 86c4 31 22 81 2 109c-5 7 -13 12 -20 12zM363 407c-4 -41 -9 -73 -10 -117c-20 2 -40 3 -59 3c24 38 46 76 69 114zM259 275c-46 -68 -167 -249 -246 -229c-79 21 -18 214 246 229zM140 216v-1v1zM444 565
c-1 0 -3 -1 -4 -1c-13 -2 -18 -11 -22 -23c-5 -18 16 -31 30 -20c28 10 17 44 -4 44zM359 563c-9 0 -18 -5 -25 -16c-10 -16 2 -38 14 -42c19 -11 46 14 39 37c-3 13 -15 21 -28 21z" />
    <glyph glyph-name="Aring" unicode="&#xc5;" horiz-adv-x="528" 
d="M408 484c-8 0 -17 -4 -25 -14c-10 -3 -14 -30 -112 -177c-89 -4 -185 -29 -251 -89c-39 -37 -96 -138 -22 -172c77 -36 161 70 200 121c31 39 58 80 85 122c23 0 46 -1 69 -5c0 -52 13 -204 27 -251c7 -24 45 -20 44 6c-2 73 -16 76 -5 232c31 -9 63 -20 94 -33
c7 -2 11 9 5 13c-30 18 -63 31 -98 40c2 29 4 57 7 86c4 31 22 81 2 109c-5 7 -13 12 -20 12zM363 407c-4 -41 -9 -73 -10 -117c-20 2 -40 3 -59 3c24 38 46 76 69 114zM259 275c-46 -68 -167 -249 -246 -229c-79 21 -18 214 246 229zM140 216v-1v1zM374 578
c-2 0 -4 0 -7 -2c-29 -15 -25 -57 -1 -75c27 -21 68 -10 77 25c8 36 -28 60 -56 46c-3 4 -7 6 -13 6zM402 542c3 0 6 -1 7 -3c3 -4 1 -11 -3 -14c-10 -9 -29 4 -28 17c7 -5 17 0 24 0z" />
    <glyph glyph-name="AE" unicode="&#xc6;" horiz-adv-x="1282" 
d="M854 467c-8 0 -17 -4 -25 -14c-10 -3 -14 -29 -112 -177c-89 -3 -185 -28 -251 -89c-39 -37 -96 -138 -22 -172c77 -35 161 70 200 121c31 39 58 80 85 123c23 0 46 -2 69 -5c0 -53 13 -204 27 -251c7 -25 45 -21 44 6c-1 62 -12 73 -8 176c12 3 24 5 37 8
c-8 -67 -21 -176 42 -221c60 -44 125 16 164 61c48 55 81 120 138 167c6 6 -3 18 -10 13c-67 -50 -103 -135 -161 -188c-23 -22 -80 -58 -100 -15c-18 39 -11 147 -4 194c32 3 68 3 97 14c5 2 6 11 0 12c-29 8 -62 2 -93 -2c22 122 58 178 59 195c37 3 74 3 109 2
c11 -1 11 17 0 17c-37 1 -74 0 -111 -3c-9 24 -45 37 -58 7c-3 -5 -5 -10 -7 -14c-26 -4 -53 -8 -80 -12c0 14 -2 26 -9 35c-5 8 -13 12 -20 12zM957 416c-27 -64 -45 -131 -56 -199c-13 -3 -26 -5 -39 -8c1 10 1 20 2 31c2 28 5 78 8 106c2 15 7 35 10 54c24 7 49 12 75 16
zM809 390c-4 -40 -9 -73 -10 -117c-20 2 -40 4 -59 4c24 37 46 76 69 113zM705 258c-46 -68 -167 -249 -246 -228c-79 20 -18 213 246 228z" />
    <glyph glyph-name="Ccedilla" unicode="&#xc7;" horiz-adv-x="856" 
d="M692 468h-10c-88 -8 -248 -160 -242 -309c4 -91 50 -135 109 -140c-2 -7 -4 -13 -4 -20c0 -3 1 -6 1 -8c1 -4 4 -7 8 -7c2 0 3 0 5 1c3 2 8 1 11 -2c1 -3 1 -6 0 -9c-2 -3 -5 -6 -9 -8c-5 -1 -11 -1 -16 0c-6 2 -12 4 -18 8c-1 1 -2 2 -4 2s-5 -2 -5 -5c1 -2 2 -3 4 -5
c5 -5 10 -11 17 -15c7 -3 14 -4 21 -2c10 1 20 8 24 17c4 6 4 13 2 20c-3 7 -10 14 -18 17h-6c0 5 2 10 4 15v0c11 0 22 2 34 4c105 24 174 114 249 183c5 5 -3 13 -8 8c-56 -55 -115 -118 -188 -152c-40 -18 -105 -33 -138 7c-52 62 8 229 127 313c25 18 74 58 104 27
c21 -21 -1 -60 -16 -78c-18 -21 -41 -33 -68 -36c-5 -1 -7 -8 -1 -9c65 -15 137 79 109 139c-14 30 -47 44 -78 44z" />
    <glyph glyph-name="Egrave" unicode="&#xc8;" horiz-adv-x="384" 
d="M175 480c-10 0 -19 -5 -25 -17l-6 -15c-46 -6 -92 -13 -139 -19c-17 -3 -13 -29 3 -29c12 0 16 0 24 7c34 12 69 20 105 26c-26 -64 -45 -131 -55 -199c-23 -5 -46 -9 -68 -14c-17 -4 -6 -29 7 -23c19 5 38 9 58 12c-9 -66 -21 -175 42 -220c60 -44 125 16 164 61
c47 55 76 103 132 151c7 5 -2 17 -9 12c-67 -50 -99 -118 -156 -172c-23 -21 -80 -58 -100 -15c-18 40 -11 148 -4 194c32 3 68 4 97 15c5 2 6 10 0 12c-29 7 -63 2 -93 -3c22 123 57 178 59 196c37 2 74 2 109 1c11 0 11 17 0 18c-38 1 -74 -1 -111 -4c-5 15 -20 25 -34 25
zM158 609c-5 0 -11 -2 -14 -8c-7 -13 0 -31 5 -44c27 -69 57 -38 52 -23c-6 15 -23 38 -26 56c3 12 -7 20 -17 19z" />
    <glyph glyph-name="Eacute" unicode="&#xc9;" horiz-adv-x="384" 
d="M175 480c-10 0 -19 -5 -25 -17l-6 -15c-46 -6 -92 -13 -139 -19c-17 -3 -13 -29 3 -29c12 0 16 0 24 7c34 12 69 20 105 26c-26 -64 -45 -131 -55 -199c-23 -5 -46 -9 -68 -14c-17 -4 -6 -29 7 -23c19 5 38 9 58 12c-9 -66 -21 -175 42 -220c60 -44 125 16 164 61
c47 55 76 103 132 151c7 5 -2 17 -9 12c-67 -50 -99 -118 -156 -172c-23 -21 -80 -58 -100 -15c-18 40 -11 148 -4 194c32 3 68 4 97 15c5 2 6 10 0 12c-29 7 -63 2 -93 -3c22 123 57 178 59 196c37 2 74 2 109 1c11 0 11 17 0 18c-38 1 -74 -1 -111 -4c-5 15 -20 25 -34 25
zM190 607c-8 1 -15 -4 -15 -14c0 -43 -17 -50 -15 -74c1 -4 3 -8 8 -8c39 0 45 58 36 86c-2 7 -8 10 -14 10z" />
    <glyph glyph-name="Ecircumflex" unicode="&#xca;" horiz-adv-x="384" 
d="M175 480c-10 0 -19 -5 -25 -17l-6 -15c-46 -6 -92 -13 -139 -19c-17 -3 -13 -29 3 -29c12 0 16 0 24 7c34 12 69 20 105 26c-26 -64 -45 -131 -55 -199c-23 -5 -46 -9 -68 -14c-17 -4 -6 -29 7 -23c19 5 38 9 58 12c-9 -66 -21 -175 42 -220c60 -44 125 16 164 61
c47 55 76 103 132 151c7 5 -2 17 -9 12c-67 -50 -99 -118 -156 -172c-23 -21 -80 -58 -100 -15c-18 40 -11 148 -4 194c32 3 68 4 97 15c5 2 6 10 0 12c-29 7 -63 2 -93 -3c22 123 57 178 59 196c37 2 74 2 109 1c11 0 11 17 0 18c-38 1 -74 -1 -111 -4c-5 15 -20 25 -34 25
zM179 607h-5c-9 -2 -12 -6 -56 -55c-13 -16 9 -39 23 -23c34 40 24 29 32 38c9 -11 16 -23 28 -32c18 -15 51 4 36 28c-11 15 -36 45 -58 44z" />
    <glyph glyph-name="Edieresis" unicode="&#xcb;" horiz-adv-x="384" 
d="M175 480c-10 0 -19 -5 -25 -17l-6 -15c-46 -6 -92 -13 -139 -19c-17 -3 -13 -29 3 -29c12 0 16 0 24 7c34 12 69 20 105 26c-26 -64 -45 -131 -55 -199c-23 -5 -46 -9 -68 -14c-17 -4 -6 -29 7 -23c19 5 38 9 58 12c-9 -66 -21 -175 42 -220c60 -44 125 16 164 61
c47 55 76 103 132 151c7 5 -2 17 -9 12c-67 -50 -99 -118 -156 -172c-23 -21 -80 -58 -100 -15c-18 40 -11 148 -4 194c32 3 68 4 97 15c5 2 6 10 0 12c-29 7 -63 2 -93 -3c22 123 57 178 59 196c37 2 74 2 109 1c11 0 11 17 0 18c-38 1 -74 -1 -111 -4c-5 15 -20 25 -34 25
zM216 564c-1 0 -3 -1 -4 -1c-13 -2 -18 -11 -22 -23c-5 -18 16 -31 30 -20c28 10 17 44 -4 44zM131 562c-9 0 -18 -5 -25 -16c-10 -16 2 -38 14 -42c19 -11 46 14 39 37c-3 13 -15 21 -28 21z" />
    <glyph glyph-name="Igrave" unicode="&#xcc;" horiz-adv-x="205" 
d="M80 456c-5 0 -10 -1 -14 -4c-18 0 -41 0 -60 -1c-16 -1 -16 -24 0 -25c15 -1 31 0 46 0c-34 -100 16 -219 2 -326c-2 -10 -4 -25 -9 -34c-46 5 -57 -31 -34 -47c17 -12 38 -4 52 8c37 -12 55 -22 79 -14c5 1 9 9 5 14c-13 20 -36 28 -60 32c30 61 24 187 22 256
c-1 37 3 75 -1 113c15 0 29 2 42 6c6 2 6 10 0 12c-18 6 -38 6 -57 6c-4 2 -9 4 -13 4zM60 573c-5 0 -11 -2 -14 -8c-7 -13 0 -31 5 -44c27 -69 57 -38 52 -23c-6 15 -23 38 -26 56c3 12 -7 20 -17 19z" />
    <glyph glyph-name="Iacute" unicode="&#xcd;" horiz-adv-x="205" 
d="M80 456c-5 0 -10 -1 -14 -4c-18 0 -41 0 -60 -1c-16 -1 -16 -24 0 -25c15 -1 31 0 46 0c-34 -100 16 -219 2 -326c-2 -10 -4 -25 -9 -34c-46 5 -57 -31 -34 -47c17 -12 38 -4 52 8c37 -12 55 -22 79 -14c5 1 9 9 5 14c-13 20 -36 28 -60 32c30 61 24 187 22 256
c-1 37 3 75 -1 113c15 0 29 2 42 6c6 2 6 10 0 12c-18 6 -38 6 -57 6c-4 2 -9 4 -13 4zM92 571c-8 1 -15 -4 -15 -14c0 -43 -17 -50 -15 -74c1 -4 3 -8 8 -8c39 0 45 58 36 86c-2 7 -8 10 -14 10z" />
    <glyph glyph-name="Icircumflex" unicode="&#xce;" horiz-adv-x="205" 
d="M80 456c-5 0 -10 -1 -14 -4c-18 0 -41 0 -60 -1c-16 -1 -16 -24 0 -25c15 -1 31 0 46 0c-34 -100 16 -219 2 -326c-2 -10 -4 -25 -9 -34c-46 5 -57 -31 -34 -47c17 -12 38 -4 52 8c37 -12 55 -22 79 -14c5 1 9 9 5 14c-13 20 -36 28 -60 32c30 61 24 187 22 256
c-1 37 3 75 -1 113c15 0 29 2 42 6c6 2 6 10 0 12c-18 6 -38 6 -57 6c-4 2 -9 4 -13 4zM81 571h-5c-9 -2 -12 -6 -56 -55c-13 -16 9 -39 23 -23c34 40 24 29 32 38c9 -11 16 -23 28 -32c18 -15 51 4 36 28c-11 15 -36 45 -58 44z" />
    <glyph glyph-name="Idieresis" unicode="&#xcf;" horiz-adv-x="205" 
d="M80 456c-5 0 -10 -1 -14 -4c-18 0 -41 0 -60 -1c-16 -1 -16 -24 0 -25c15 -1 31 0 46 0c-34 -100 16 -219 2 -326c-2 -10 -4 -25 -9 -34c-46 5 -57 -31 -34 -47c17 -12 38 -4 52 8c37 -12 55 -22 79 -14c5 1 9 9 5 14c-13 20 -36 28 -60 32c30 61 24 187 22 256
c-1 37 3 75 -1 113c15 0 29 2 42 6c6 2 6 10 0 12c-18 6 -38 6 -57 6c-4 2 -9 4 -13 4zM118 528c-1 0 -3 -1 -4 -1c-13 -2 -18 -11 -22 -23c-5 -18 16 -31 30 -20c28 10 17 44 -4 44zM33 526c-9 0 -18 -5 -25 -16c-10 -16 2 -38 14 -42c19 -11 46 14 39 37
c-3 13 -15 21 -28 21z" />
    <glyph glyph-name="Eth" unicode="&#xd0;" horiz-adv-x="1017" 
d="M827 479c-41 -1 -77 -37 -103 -67c-48 -57 -80 -119 -102 -170c-10 -1 -21 -3 -31 -5c6 46 19 89 36 133c13 35 -42 57 -60 26c-32 -55 -44 -117 -47 -181c-1 0 -2 0 -2 -1c-23 -10 -41 -21 -52 -29c-6 -4 -10 -8 -13 -10l-4 -4l-2 -2c0 0 0 -1 -1 -3v-3c0 -2 2 -5 4 -7
c4 -3 7 -2 8 -2l2 1c2 1 3 2 4 3l2 2c2 2 6 5 11 9c10 7 24 16 43 24c0 -59 8 -119 18 -174c5 -27 47 -20 47 6v38c10 55 25 108 46 160c24 1 51 1 80 -4h1c5 0 9 4 10 8v2c0 5 -4 9 -8 10c-21 3 -41 4 -60 4h-15c10 23 22 45 34 67c24 44 54 99 101 122c27 14 49 11 63 -16
c23 -46 29 -143 -10 -235c-59 0 -117 -2 -166 -38c-150 -111 107 -300 234 27c41 2 81 9 119 32c8 5 0 18 -8 13c-32 -22 -69 -30 -107 -32c32 89 43 250 -40 289c-10 4 -20 6 -30 7h-2zM614 221c-35 -94 -32 -138 -26 -19c0 5 1 10 1 15c8 1 17 3 25 4zM457 174
c1 0 1 0 2 -1c-1 1 -2 1 -3 1v0h1zM821 168c-37 -77 -124 -161 -170 -123c-27 22 -10 58 10 78c41 38 104 44 160 45z" />
    <glyph glyph-name="Ntilde" unicode="&#xd1;" horiz-adv-x="439" 
d="M167 497c-64 0 -110 -95 -130 -145c-20 -51 -32 -106 -38 -161c-6 -50 -13 -115 9 -162c3 -6 14 -5 16 2c4 24 1 47 0 71c-7 177 60 359 127 363c27 2 22 -30 23 -49c8 -157 -27 -279 41 -373c23 -31 65 -46 94 -16c30 32 40 81 51 122c28 103 43 226 12 330
c-3 8 -16 7 -15 -2c1 -51 5 -102 3 -153c-6 -123 -51 -262 -77 -260c-8 1 -14 18 -17 24c-48 92 -16 203 -24 301c-3 37 -10 88 -50 103c-9 3 -17 5 -25 5zM218 582c-21 0 -38 -9 -50 -26c-4 -5 -1 -14 4 -17l6 -3c7 -4 17 3 16 11c28 21 61 -13 91 -15c22 -1 37 12 36 34
c0 8 -10 10 -14 4c-14 -21 -68 11 -89 12z" />
    <glyph glyph-name="Ograve" unicode="&#xd2;" 
d="M133 493c-58 0 -116 -36 -140 -96c-16 -41 -13 -89 9 -126c-36 -99 -19 -242 68 -270c73 -25 189 55 206 255c14 169 -64 237 -143 237zM144 470c38 0 76 -22 97 -76c35 -87 16 -201 -31 -280c-66 -112 -173 -118 -167 27c1 26 5 54 13 80c48 -23 114 -18 150 24
c6 7 -2 20 -11 14c-39 -24 -89 -32 -126 -2c12 29 32 65 54 86c16 16 40 12 46 22c8 13 4 24 -6 31c-56 41 -109 -26 -136 -72c-19 79 50 147 117 146zM99 631c-5 0 -11 -2 -14 -8c-7 -13 0 -31 5 -44c27 -69 57 -38 52 -23c-6 15 -23 38 -26 56c3 12 -7 20 -17 19z" />
    <glyph glyph-name="Oacute" unicode="&#xd3;" 
d="M133 493c-58 0 -116 -36 -140 -96c-16 -41 -13 -89 9 -126c-36 -99 -19 -242 68 -270c73 -25 189 55 206 255c14 169 -64 237 -143 237zM144 470c38 0 76 -22 97 -76c35 -87 16 -201 -31 -280c-66 -112 -173 -118 -167 27c1 26 5 54 13 80c48 -23 114 -18 150 24
c6 7 -2 20 -11 14c-39 -24 -89 -32 -126 -2c12 29 32 65 54 86c16 16 40 12 46 22c8 13 4 24 -6 31c-56 41 -109 -26 -136 -72c-19 79 50 147 117 146zM131 629c-8 1 -15 -4 -15 -14c0 -43 -17 -50 -15 -74c1 -4 3 -8 8 -8c39 0 45 58 36 86c-2 7 -8 10 -14 10z" />
    <glyph glyph-name="Ocircumflex" unicode="&#xd4;" 
d="M133 493c-58 0 -116 -36 -140 -96c-16 -41 -13 -89 9 -126c-36 -99 -19 -242 68 -270c73 -25 189 55 206 255c14 169 -64 237 -143 237zM144 470c38 0 76 -22 97 -76c35 -87 16 -201 -31 -280c-66 -112 -173 -118 -167 27c1 26 5 54 13 80c48 -23 114 -18 150 24
c6 7 -2 20 -11 14c-39 -24 -89 -32 -126 -2c12 29 32 65 54 86c16 16 40 12 46 22c8 13 4 24 -6 31c-56 41 -109 -26 -136 -72c-19 79 50 147 117 146zM120 629h-5c-9 -2 -12 -6 -56 -55c-13 -16 9 -39 23 -23c34 40 24 29 32 38c9 -11 16 -23 28 -32c18 -15 51 4 36 28
c-11 15 -36 45 -58 44z" />
    <glyph glyph-name="Otilde" unicode="&#xd5;" 
d="M133 493c-58 0 -116 -36 -140 -96c-16 -41 -13 -89 9 -126c-36 -99 -19 -242 68 -270c73 -25 189 55 206 255c14 169 -64 237 -143 237zM144 470c38 0 76 -22 97 -76c35 -87 16 -201 -31 -280c-66 -112 -173 -118 -167 27c1 26 5 54 13 80c48 -23 114 -18 150 24
c6 7 -2 20 -11 14c-39 -24 -89 -32 -126 -2c12 29 32 65 54 86c16 16 40 12 46 22c8 13 4 24 -6 31c-56 41 -109 -26 -136 -72c-19 79 50 147 117 146zM87 583c-21 0 -38 -9 -50 -26c-4 -5 -1 -14 4 -17l6 -3c7 -4 17 3 16 11c28 21 61 -13 91 -15c22 -1 37 12 36 34
c0 8 -10 10 -14 4c-14 -21 -68 11 -89 12z" />
    <glyph glyph-name="Odieresis" unicode="&#xd6;" 
d="M133 493c-58 0 -116 -36 -140 -96c-16 -41 -13 -89 9 -126c-36 -99 -19 -242 68 -270c73 -25 189 55 206 255c14 169 -64 237 -143 237zM144 470c38 0 76 -22 97 -76c35 -87 16 -201 -31 -280c-66 -112 -173 -118 -167 27c1 26 5 54 13 80c48 -23 114 -18 150 24
c6 7 -2 20 -11 14c-39 -24 -89 -32 -126 -2c12 29 32 65 54 86c16 16 40 12 46 22c8 13 4 24 -6 31c-56 41 -109 -26 -136 -72c-19 79 50 147 117 146zM157 586c-1 0 -3 -1 -4 -1c-13 -2 -18 -11 -22 -23c-5 -18 16 -31 30 -20c28 10 17 44 -4 44zM72 584
c-9 0 -18 -5 -25 -16c-10 -16 2 -38 14 -42c19 -11 46 14 39 37c-3 13 -15 21 -28 21z" />
    <glyph glyph-name="multiply" unicode="&#xd7;" horiz-adv-x="633" 
d="M597 321c-4 -1 -8 -1 -12 -3c-23 -11 -43 -33 -61 -53c-17 18 -34 35 -56 48c-12 7 -30 -5 -25 -20c8 -26 24 -47 42 -68c-21 -20 -40 -39 -42 -71c0 -8 7 -14 15 -15c30 -1 52 15 72 35c13 -13 26 -25 41 -35c10 -6 25 -5 35 9c5 7 5 19 0 26c-10 14 -22 28 -34 40
c22 21 45 43 55 71c8 21 -11 36 -30 36z" />
    <glyph glyph-name="Oslash" unicode="&#xd8;" horiz-adv-x="740" 
d="M701 507c-4 0 -7 -3 -9 -6c-6 -13 -13 -27 -20 -43c-72 65 -190 29 -226 -63c-16 -41 -13 -89 9 -126c-29 -81 -23 -190 27 -244c-1 -1 -2 -3 -3 -5c-8 -19 -15 -34 -20 -44c-2 -5 -4 -9 -5 -11v0c-2 -2 -4 -4 -4 -7c0 -1 0 -2 1 -3c0 -2 1 -5 5 -6c3 -2 7 -1 8 -1
c4 2 4 3 4 4c2 1 2 2 3 4c2 2 4 6 6 12c5 10 12 25 20 44c8 -6 16 -10 25 -13c74 -25 190 54 207 255c7 90 -11 151 -42 189c8 18 16 35 23 49c1 2 1 3 1 5c0 4 -2 7 -6 9c-1 0 -2 1 -4 1v0zM597 468c24 0 47 -9 67 -28c-27 -60 -59 -133 -91 -204c-18 1 -36 7 -51 19
c12 29 32 65 54 86c16 16 40 12 46 22c8 13 4 24 -6 31c-56 41 -109 -26 -136 -72c-19 79 50 147 117 146zM678 423c6 -9 11 -19 16 -31c35 -87 16 -201 -31 -280c-47 -80 -115 -106 -148 -61c14 32 30 69 47 110c7 14 13 30 20 45c29 2 57 14 77 37c6 7 -2 20 -11 14
c-16 -10 -34 -17 -52 -20c28 65 57 131 82 186zM509 219c16 -8 33 -12 51 -13c-5 -13 -11 -25 -16 -37c-15 -35 -29 -67 -41 -95c-6 17 -8 38 -7 65c1 26 5 54 13 80z" />
    <glyph glyph-name="Ugrave" unicode="&#xd9;" horiz-adv-x="488" 
d="M375 486c-5 0 -9 -1 -13 -3c-29 -21 -37 -60 -47 -92c-13 -43 -24 -93 -27 -137c-34 -67 -74 -137 -130 -189c-45 -43 -77 -35 -96 26c-20 63 0 161 16 225c20 82 42 114 30 105c33 25 1 83 -34 57c-19 -14 -26 -35 -34 -57c-25 -64 -46 -150 -43 -222
c3 -60 27 -195 110 -192c41 1 72 39 94 68c34 43 62 87 85 134c1 -49 9 -99 28 -142c20 -45 67 -85 108 -40c26 29 23 33 95 176c5 9 -9 17 -14 8c-21 -43 -65 -142 -96 -168c-52 -44 -105 74 -22 344c8 27 21 51 16 80c-2 11 -14 19 -26 19zM200 621c-5 0 -11 -2 -14 -8
c-7 -13 0 -31 5 -44c27 -69 57 -38 52 -23c-6 15 -23 38 -26 56c3 12 -7 20 -17 19z" />
    <glyph glyph-name="Uacute" unicode="&#xda;" horiz-adv-x="488" 
d="M375 486c-5 0 -9 -1 -13 -3c-29 -21 -37 -60 -47 -92c-13 -43 -24 -93 -27 -137c-34 -67 -74 -137 -130 -189c-45 -43 -77 -35 -96 26c-20 63 0 161 16 225c20 82 42 114 30 105c33 25 1 83 -34 57c-19 -14 -26 -35 -34 -57c-25 -64 -46 -150 -43 -222
c3 -60 27 -195 110 -192c41 1 72 39 94 68c34 43 62 87 85 134c1 -49 9 -99 28 -142c20 -45 67 -85 108 -40c26 29 23 33 95 176c5 9 -9 17 -14 8c-21 -43 -65 -142 -96 -168c-52 -44 -105 74 -22 344c8 27 21 51 16 80c-2 11 -14 19 -26 19zM232 619c-8 1 -15 -4 -15 -14
c0 -43 -17 -50 -15 -74c1 -4 3 -8 8 -8c39 0 45 58 36 86c-2 7 -8 10 -14 10z" />
    <glyph glyph-name="Ucircumflex" unicode="&#xdb;" horiz-adv-x="488" 
d="M375 486c-5 0 -9 -1 -13 -3c-29 -21 -37 -60 -47 -92c-13 -43 -24 -93 -27 -137c-34 -67 -74 -137 -130 -189c-45 -43 -77 -35 -96 26c-20 63 0 161 16 225c20 82 42 114 30 105c33 25 1 83 -34 57c-19 -14 -26 -35 -34 -57c-25 -64 -46 -150 -43 -222
c3 -60 27 -195 110 -192c41 1 72 39 94 68c34 43 62 87 85 134c1 -49 9 -99 28 -142c20 -45 67 -85 108 -40c26 29 23 33 95 176c5 9 -9 17 -14 8c-21 -43 -65 -142 -96 -168c-52 -44 -105 74 -22 344c8 27 21 51 16 80c-2 11 -14 19 -26 19zM221 619h-5
c-9 -2 -12 -6 -56 -55c-13 -16 9 -39 23 -23c34 40 24 29 32 38c9 -11 16 -23 28 -32c18 -15 51 4 36 28c-11 15 -36 45 -58 44z" />
    <glyph glyph-name="Udieresis" unicode="&#xdc;" horiz-adv-x="488" 
d="M375 486c-5 0 -9 -1 -13 -3c-29 -21 -37 -60 -47 -92c-13 -43 -24 -93 -27 -137c-34 -67 -74 -137 -130 -189c-45 -43 -77 -35 -96 26c-20 63 0 161 16 225c20 82 42 114 30 105c33 25 1 83 -34 57c-19 -14 -26 -35 -34 -57c-25 -64 -46 -150 -43 -222
c3 -60 27 -195 110 -192c41 1 72 39 94 68c34 43 62 87 85 134c1 -49 9 -99 28 -142c20 -45 67 -85 108 -40c26 29 23 33 95 176c5 9 -9 17 -14 8c-21 -43 -65 -142 -96 -168c-52 -44 -105 74 -22 344c8 27 21 51 16 80c-2 11 -14 19 -26 19zM258 576c-1 0 -3 -1 -4 -1
c-13 -2 -18 -11 -22 -23c-5 -18 16 -31 30 -20c28 10 17 44 -4 44zM173 574c-9 0 -18 -5 -25 -16c-10 -16 2 -38 14 -42c19 -11 46 14 39 37c-3 13 -15 21 -28 21z" />
    <glyph glyph-name="Yacute" unicode="&#xdd;" horiz-adv-x="391" 
d="M94 475c-5 0 -9 -2 -14 -5c-51 -39 -82 -154 -81 -218c1 -59 22 -141 96 -137c64 3 115 77 149 125c53 76 52 110 50 78c-2 -45 -4 -87 -11 -132c-77 -33 -183 -114 -178 -198c2 -26 17 -54 41 -66c30 -15 64 -2 89 16c81 59 104 163 117 258c25 5 50 7 75 9c4 1 4 7 0 7
c-24 3 -49 1 -73 -3c10 79 13 160 5 238c-1 17 -11 23 -27 24c-35 3 -38 -69 -38 -104c-28 -75 -90 -176 -158 -214c-34 -18 -70 -9 -74 32c-2 27 1 55 5 82c12 108 43 122 54 172l-1 -1c4 17 -10 37 -26 37zM281 173c-10 -70 -24 -154 -75 -205c-46 -45 -88 -1 -76 51
c14 63 92 126 151 154zM216 581c-8 1 -15 -4 -15 -14c0 -43 -17 -50 -15 -74c1 -4 3 -8 8 -8c39 0 45 58 36 86c-2 7 -8 10 -14 10z" />
    <glyph glyph-name="Thorn" unicode="&#xde;" horiz-adv-x="557" 
d="M455 429c-2 0 -4 -1 -5 -4c-7 -14 -8 -18 -8 -144c0 -49 -5 -105 7 -153c2 -10 15 -8 18 0c2 -2 5 38 5 54c59 -8 110 92 60 130c-24 19 -49 7 -63 -15c0 97 4 106 -5 126c-1 4 -5 6 -9 6zM501 285c8 0 1 -27 -3 -36c-5 -13 -14 -21 -27 -23c2 19 5 39 18 52
c6 5 9 7 12 7z" />
    <glyph glyph-name="germandbls" unicode="&#xdf;" horiz-adv-x="606" 
d="M520 386c-11 0 -22 -3 -33 -11c-59 -41 -59 -178 -35 -248c2 -12 23 -14 23 2c1 51 -11 101 -2 152c4 20 10 56 28 69c29 3 39 -5 32 -23c-7 -16 -20 -37 -31 -50c-10 -12 -7 -30 9 -35c21 -7 39 -25 41 -48c1 -9 1 -23 -11 -26c-20 -5 -21 17 -25 29c-3 6 -10 8 -15 4
c-19 -16 -11 -47 6 -61c21 -18 54 -16 73 4c39 40 8 100 -33 127c42 70 11 115 -27 115z" />
    <glyph glyph-name="agrave" unicode="&#xe0;" horiz-adv-x="327" 
d="M61 342c-16 0 -32 -4 -46 -13c-127 -79 -62 -285 33 -209c26 21 42 53 57 83c2 -42 17 -92 53 -117c80 -57 129 63 150 121c3 8 -9 12 -12 4c-9 -26 -17 -52 -32 -74c-20 -31 -77 -63 -90 -8c-14 57 5 116 13 171c5 35 -35 47 -60 10c-13 21 -39 32 -66 32zM66 277
c15 0 21 -15 31 -23c-18 -38 -43 -118 -84 -114c-17 2 -19 8 -21 24c-3 33 30 93 60 109c6 2 10 4 14 4zM89 471c-5 0 -11 -2 -14 -8c-7 -13 0 -31 5 -44c27 -69 57 -38 52 -23c-6 15 -23 38 -26 56c3 12 -7 20 -17 19z" />
    <glyph glyph-name="aacute" unicode="&#xe1;" horiz-adv-x="327" 
d="M61 342c-16 0 -32 -4 -46 -13c-127 -79 -62 -285 33 -209c26 21 42 53 57 83c2 -42 17 -92 53 -117c80 -57 129 63 150 121c3 8 -9 12 -12 4c-9 -26 -17 -52 -32 -74c-20 -31 -77 -63 -90 -8c-14 57 5 116 13 171c5 35 -35 47 -60 10c-13 21 -39 32 -66 32zM66 277
c15 0 21 -15 31 -23c-18 -38 -43 -118 -84 -114c-17 2 -19 8 -21 24c-3 33 30 93 60 109c6 2 10 4 14 4zM121 469c-8 1 -15 -4 -15 -14c0 -43 -17 -50 -15 -74c1 -4 3 -8 8 -8c39 0 45 58 36 86c-2 7 -8 10 -14 10z" />
    <glyph glyph-name="acircumflex" unicode="&#xe2;" horiz-adv-x="327" 
d="M61 342c-16 0 -32 -4 -46 -13c-127 -79 -62 -285 33 -209c26 21 42 53 57 83c2 -42 17 -92 53 -117c80 -57 129 63 150 121c3 8 -9 12 -12 4c-9 -26 -17 -52 -32 -74c-20 -31 -77 -63 -90 -8c-14 57 5 116 13 171c5 35 -35 47 -60 10c-13 21 -39 32 -66 32zM66 277
c15 0 21 -15 31 -23c-18 -38 -43 -118 -84 -114c-17 2 -19 8 -21 24c-3 33 30 93 60 109c6 2 10 4 14 4zM110 469h-5c-9 -2 -12 -6 -56 -55c-13 -16 9 -39 23 -23c34 40 24 29 32 38c9 -11 16 -23 28 -32c18 -15 51 4 36 28c-11 15 -36 45 -58 44z" />
    <glyph glyph-name="atilde" unicode="&#xe3;" horiz-adv-x="327" 
d="M61 342c-16 0 -32 -4 -46 -13c-127 -79 -62 -285 33 -209c26 21 42 53 57 83c2 -42 17 -92 53 -117c80 -57 129 63 150 121c3 8 -9 12 -12 4c-9 -26 -17 -52 -32 -74c-20 -31 -77 -63 -90 -8c-14 57 5 116 13 171c5 35 -35 47 -60 10c-13 21 -39 32 -66 32zM66 277
c15 0 21 -15 31 -23c-18 -38 -43 -118 -84 -114c-17 2 -19 8 -21 24c-3 33 30 93 60 109c6 2 10 4 14 4zM77 423c-21 0 -38 -9 -50 -26c-4 -5 -1 -14 4 -17l6 -3c7 -4 17 3 16 11c28 21 61 -13 91 -15c22 -1 37 12 36 34c0 8 -10 10 -14 4c-14 -21 -68 11 -89 12z" />
    <glyph glyph-name="adieresis" unicode="&#xe4;" horiz-adv-x="327" 
d="M61 342c-16 0 -32 -4 -46 -13c-127 -79 -62 -285 33 -209c26 21 42 53 57 83c2 -42 17 -92 53 -117c80 -57 129 63 150 121c3 8 -9 12 -12 4c-9 -26 -17 -52 -32 -74c-20 -31 -77 -63 -90 -8c-14 57 5 116 13 171c5 35 -35 47 -60 10c-13 21 -39 32 -66 32zM66 277
c15 0 21 -15 31 -23c-18 -38 -43 -118 -84 -114c-17 2 -19 8 -21 24c-3 33 30 93 60 109c6 2 10 4 14 4zM147 426c-1 0 -3 -1 -4 -1c-13 -2 -18 -11 -22 -23c-5 -18 16 -31 30 -20c28 10 17 44 -4 44zM62 424c-9 0 -18 -5 -25 -16c-10 -16 2 -38 14 -42c19 -11 46 14 39 37
c-3 13 -15 21 -28 21z" />
    <glyph glyph-name="aring" unicode="&#xe5;" horiz-adv-x="327" 
d="M61 342c-16 0 -32 -4 -46 -13c-127 -79 -62 -285 33 -209c26 21 42 53 57 83c2 -42 17 -92 53 -117c80 -57 129 63 150 121c3 8 -9 12 -12 4c-9 -26 -17 -52 -32 -74c-20 -31 -77 -63 -90 -8c-14 57 5 116 13 171c5 35 -35 47 -60 10c-13 21 -39 32 -66 32zM66 277
c15 0 21 -15 31 -23c-18 -38 -43 -118 -84 -114c-17 2 -19 8 -21 24c-3 33 30 93 60 109c6 2 10 4 14 4zM24 490c-2 0 -5 -1 -7 -2c-29 -15 -26 -57 -2 -75c28 -21 69 -10 77 25c8 36 -28 60 -55 46c-3 4 -8 6 -13 6zM52 454c3 0 5 -1 7 -3c3 -5 1 -11 -3 -14
c-10 -9 -30 4 -28 17c7 -5 17 0 24 0z" />
    <glyph glyph-name="ae" unicode="&#xe6;" horiz-adv-x="823" 
d="M507 335c-16 0 -32 -4 -46 -13c-127 -79 -62 -285 33 -209c11 9 20 19 28 31c3 -55 32 -109 94 -109c85 1 123 107 151 170c3 7 -6 11 -9 4c-20 -48 -46 -104 -90 -135c-25 -17 -56 -25 -77 3c-17 23 -14 55 -9 85c57 -3 114 53 93 113c-10 31 -48 48 -77 30
c-43 -38 -16 30 -91 30zM512 270h2c13 -1 19 -15 29 -23c-18 -38 -43 -118 -84 -114c-17 2 -19 8 -21 24c-3 33 30 93 60 109c6 3 10 4 14 4zM640 266c19 0 26 -37 0 -66c-16 -19 -35 -22 -55 -23c6 31 18 63 39 82c6 5 11 7 16 7z" />
    <glyph glyph-name="ccedilla" unicode="&#xe7;" horiz-adv-x="710" 
d="M553 342h-2c-7 0 -14 -1 -21 -3c-69 -21 -103 -107 -92 -173c9 -49 43 -105 95 -112c-2 -7 -3 -14 -2 -21c1 -4 4 -8 9 -8c1 0 3 0 5 2c2 1 5 -1 6 -3c0 -1 0 -3 -1 -5c-2 -3 -6 -4 -10 -4c-5 0 -9 1 -14 3c-3 1 -5 3 -8 5s-7 0 -9 -3c-1 -2 0 -5 2 -7c3 -4 7 -8 11 -11
s10 -5 16 -6c8 0 16 3 22 8c5 4 9 11 9 17c0 10 -6 19 -15 23c-1 1 -3 1 -5 1c0 3 1 5 2 8l1 1c1 0 3 0 4 1c72 11 111 97 143 152c5 9 -10 15 -13 5c-13 -41 -44 -76 -77 -104c-20 -18 -53 -44 -81 -27c-73 44 -20 191 20 204c27 9 31 -32 28 -49c-1 -7 6 -12 12 -7
c54 50 19 112 -35 113z" />
    <glyph glyph-name="egrave" unicode="&#xe8;" horiz-adv-x="218" 
d="M89 321c-9 0 -18 -2 -26 -7c-34 -20 -56 -60 -69 -96c-22 -67 0 -174 87 -174c85 1 123 99 151 163c3 6 -7 11 -10 4c-20 -49 -45 -97 -89 -128c-25 -17 -56 -25 -77 3c-17 23 -14 55 -9 85c56 -3 114 53 93 113c-8 22 -29 37 -51 37zM105 275c18 0 26 -37 0 -66
c-16 -19 -35 -22 -55 -23c6 31 17 63 39 82c6 5 11 7 16 7zM65 443c-5 0 -11 -2 -14 -8c-7 -13 0 -31 5 -44c27 -69 57 -38 52 -23c-6 15 -23 38 -26 56c3 12 -7 20 -17 19z" />
    <glyph glyph-name="eacute" unicode="&#xe9;" horiz-adv-x="218" 
d="M89 321c-9 0 -18 -2 -26 -7c-34 -20 -56 -60 -69 -96c-22 -67 0 -174 87 -174c85 1 123 99 151 163c3 6 -7 11 -10 4c-20 -49 -45 -97 -89 -128c-25 -17 -56 -25 -77 3c-17 23 -14 55 -9 85c56 -3 114 53 93 113c-8 22 -29 37 -51 37zM105 275c18 0 26 -37 0 -66
c-16 -19 -35 -22 -55 -23c6 31 17 63 39 82c6 5 11 7 16 7zM97 441c-8 1 -15 -4 -15 -14c0 -43 -17 -50 -15 -74c1 -4 3 -8 8 -8c39 0 45 58 36 86c-2 7 -8 10 -14 10z" />
    <glyph glyph-name="ecircumflex" unicode="&#xea;" horiz-adv-x="218" 
d="M89 321c-9 0 -18 -2 -26 -7c-34 -20 -56 -60 -69 -96c-22 -67 0 -174 87 -174c85 1 123 99 151 163c3 6 -7 11 -10 4c-20 -49 -45 -97 -89 -128c-25 -17 -56 -25 -77 3c-17 23 -14 55 -9 85c56 -3 114 53 93 113c-8 22 -29 37 -51 37zM105 275c18 0 26 -37 0 -66
c-16 -19 -35 -22 -55 -23c6 31 17 63 39 82c6 5 11 7 16 7zM86 441h-5c-9 -2 -12 -6 -56 -55c-13 -16 9 -39 23 -23c34 40 24 29 32 38c9 -11 16 -23 28 -32c18 -15 51 4 36 28c-11 15 -36 45 -58 44z" />
    <glyph glyph-name="edieresis" unicode="&#xeb;" horiz-adv-x="218" 
d="M89 321c-9 0 -18 -2 -26 -7c-34 -20 -56 -60 -69 -96c-22 -67 0 -174 87 -174c85 1 123 99 151 163c3 6 -7 11 -10 4c-20 -49 -45 -97 -89 -128c-25 -17 -56 -25 -77 3c-17 23 -14 55 -9 85c56 -3 114 53 93 113c-8 22 -29 37 -51 37zM105 275c18 0 26 -37 0 -66
c-16 -19 -35 -22 -55 -23c6 31 17 63 39 82c6 5 11 7 16 7zM123 398c-1 0 -3 -1 -4 -1c-13 -2 -18 -11 -22 -23c-5 -18 16 -31 30 -20c28 10 17 44 -4 44zM38 396c-9 0 -18 -5 -25 -16c-10 -16 2 -38 14 -42c19 -11 46 14 39 37c-3 13 -15 21 -28 21z" />
    <glyph glyph-name="igrave" unicode="&#xec;" horiz-adv-x="166" 
d="M51 331c-5 0 -11 -1 -17 -3c-19 -9 -25 -40 -30 -59c-20 -69 -22 -160 29 -214c77 -81 134 100 155 146c5 11 -11 18 -15 6c-13 -35 -29 -62 -48 -94c-10 -16 -22 -42 -42 -41c-15 1 -17 8 -21 22c-12 40 -4 120 9 167c4 13 12 26 11 39c-2 19 -15 31 -31 31zM37 449
c-5 0 -11 -2 -14 -8c-7 -13 0 -31 5 -44c27 -69 57 -38 52 -23c-6 15 -23 38 -26 56c3 12 -7 20 -17 19z" />
    <glyph glyph-name="iacute" unicode="&#xed;" horiz-adv-x="166" 
d="M51 331c-5 0 -11 -1 -17 -3c-19 -9 -25 -40 -30 -59c-20 -69 -22 -160 29 -214c77 -81 134 100 155 146c5 11 -11 18 -15 6c-13 -35 -29 -62 -48 -94c-10 -16 -22 -42 -42 -41c-15 1 -17 8 -21 22c-12 40 -4 120 9 167c4 13 12 26 11 39c-2 19 -15 31 -31 31zM69 447
c-8 1 -15 -4 -15 -14c0 -43 -17 -50 -15 -74c1 -4 3 -8 8 -8c39 0 45 58 36 86c-2 7 -8 10 -14 10z" />
    <glyph glyph-name="icircumflex" unicode="&#xee;" horiz-adv-x="166" 
d="M51 331c-5 0 -11 -1 -17 -3c-19 -9 -25 -40 -30 -59c-20 -69 -22 -160 29 -214c77 -81 134 100 155 146c5 11 -11 18 -15 6c-13 -35 -29 -62 -48 -94c-10 -16 -22 -42 -42 -41c-15 1 -17 8 -21 22c-12 40 -4 120 9 167c4 13 12 26 11 39c-2 19 -15 31 -31 31zM58 447h-5
c-9 -2 -12 -6 -56 -55c-13 -16 9 -39 23 -23c34 40 24 29 32 38c9 -11 16 -23 28 -32c18 -15 51 4 36 28c-11 15 -36 45 -58 44z" />
    <glyph glyph-name="idieresis" unicode="&#xef;" horiz-adv-x="166" 
d="M44 331c-5 0 -11 -1 -17 -3c-19 -9 -25 -40 -30 -59c-20 -69 -22 -160 29 -214c77 -81 134 100 155 146c5 11 -11 18 -15 6c-13 -35 -29 -62 -48 -94c-10 -16 -22 -42 -42 -41c-15 1 -17 8 -21 22c-12 40 -4 120 9 167c4 13 12 26 11 39c-2 19 -15 31 -31 31zM88 404
c-1 0 -3 -1 -4 -1c-13 -2 -18 -11 -22 -23c-5 -18 16 -31 30 -20c28 10 17 44 -4 44zM3 402c-9 0 -18 -5 -25 -16c-10 -16 2 -38 14 -42c19 -11 46 14 39 37c-3 13 -15 21 -28 21z" />
    <glyph glyph-name="eth" unicode="&#xf0;" horiz-adv-x="667" 
d="M530 367c-12 0 -25 -9 -21 -27c3 -16 7 -32 11 -47c-48 -4 -86 -29 -79 -57c4 -17 19 -21 33 -13c4 3 3 10 -2 12c4 10 11 16 21 18c13 4 24 6 37 7c8 -27 15 -55 19 -83c-56 -26 -82 -114 -27 -123c55 -10 65 60 66 116c10 2 20 3 30 1c6 -1 7 9 1 11
c-53 15 -19 -25 -41 83c12 1 24 4 35 8c26 11 52 35 48 66c-1 5 -10 6 -12 1c-18 -35 -43 -44 -78 -46c-7 28 -21 64 -21 63c-4 6 -12 9 -20 10zM551 154c0 -15 0 -49 -8 -62c-10 -15 -27 -14 -29 4c-2 23 17 46 37 58z" />
    <glyph glyph-name="ntilde" unicode="&#xf1;" horiz-adv-x="352" 
d="M184 346c-26 0 -46 -23 -59 -43c-26 -38 -53 -89 -62 -139c-11 50 -14 103 0 151c6 20 -16 34 -33 26c-36 -17 -34 -85 -32 -119c3 -46 17 -91 43 -130c6 -8 14 -11 23 -10c10 2 18 15 14 26c-1 3 -2 7 -3 11c6 32 9 64 21 96c10 26 41 88 68 94c9 8 13 7 12 -3
c6 -16 3 -83 2 -116c-5 -194 87 -226 126 -176c34 46 32 134 77 196c3 4 -4 9 -8 5c-20 -25 -31 -53 -42 -83c-6 -19 -38 -131 -76 -100c-39 32 0 132 -15 241c-4 32 -16 69 -53 72c-1 1 -2 1 -3 1zM83 421c-21 0 -38 -9 -50 -26c-4 -5 -1 -14 4 -17l6 -3c7 -4 17 3 16 11
c28 21 61 -13 91 -15c22 -1 37 12 36 34c0 8 -10 10 -14 4c-14 -21 -68 11 -89 12z" />
    <glyph glyph-name="ograve" unicode="&#xf2;" horiz-adv-x="215" 
d="M66 317c-46 0 -80 -47 -68 -92c-58 -66 -20 -188 59 -174c48 9 80 62 89 110c26 8 50 21 68 40c7 7 -4 18 -11 11c-15 -16 -34 -28 -54 -35c7 55 -6 118 -59 136c-8 3 -16 4 -24 4zM62 306c41 0 84 -50 70 -134c-33 -6 -68 -1 -95 19l9 12c10 4 17 14 13 25
c-10 30 -33 22 -51 7c-4 18 0 38 15 53c11 12 25 18 39 18zM31 179c27 -21 63 -27 97 -22c-8 -33 -27 -62 -57 -74c-50 -18 -63 47 -40 96zM48 433c-5 0 -11 -2 -14 -8c-7 -13 0 -31 5 -44c27 -69 57 -38 52 -23c-6 15 -23 38 -26 56c3 12 -7 20 -17 19z" />
    <glyph glyph-name="oacute" unicode="&#xf3;" horiz-adv-x="215" 
d="M66 317c-46 0 -80 -47 -68 -92c-58 -66 -20 -188 59 -174c48 9 80 62 89 110c26 8 50 21 68 40c7 7 -4 18 -11 11c-15 -16 -34 -28 -54 -35c7 55 -6 118 -59 136c-8 3 -16 4 -24 4zM62 306c41 0 84 -50 70 -134c-33 -6 -68 -1 -95 19l9 12c10 4 17 14 13 25
c-10 30 -33 22 -51 7c-4 18 0 38 15 53c11 12 25 18 39 18zM31 179c27 -21 63 -27 97 -22c-8 -33 -27 -62 -57 -74c-50 -18 -63 47 -40 96zM80 431c-8 1 -15 -4 -15 -14c0 -43 -17 -50 -15 -74c1 -4 3 -8 8 -8c39 0 45 58 36 86c-2 7 -8 10 -14 10z" />
    <glyph glyph-name="ocircumflex" unicode="&#xf4;" horiz-adv-x="215" 
d="M66 317c-46 0 -80 -47 -68 -92c-58 -66 -20 -188 59 -174c48 9 80 62 89 110c26 8 50 21 68 40c7 7 -4 18 -11 11c-15 -16 -34 -28 -54 -35c7 55 -6 118 -59 136c-8 3 -16 4 -24 4zM62 306c41 0 84 -50 70 -134c-33 -6 -68 -1 -95 19l9 12c10 4 17 14 13 25
c-10 30 -33 22 -51 7c-4 18 0 38 15 53c11 12 25 18 39 18zM31 179c27 -21 63 -27 97 -22c-8 -33 -27 -62 -57 -74c-50 -18 -63 47 -40 96zM69 431h-5c-9 -2 -12 -6 -56 -55c-13 -16 9 -39 23 -23c34 40 24 29 32 38c9 -11 16 -23 28 -32c18 -15 51 4 36 28
c-11 15 -36 45 -58 44z" />
    <glyph glyph-name="otilde" unicode="&#xf5;" horiz-adv-x="215" 
d="M66 317c-46 0 -80 -47 -68 -92c-58 -66 -20 -188 59 -174c48 9 80 62 89 110c26 8 50 21 68 40c7 7 -4 18 -11 11c-15 -16 -34 -28 -54 -35c7 55 -6 118 -59 136c-8 3 -16 4 -24 4zM62 306c41 0 84 -50 70 -134c-33 -6 -68 -1 -95 19l9 12c10 4 17 14 13 25
c-10 30 -33 22 -51 7c-4 18 0 38 15 53c11 12 25 18 39 18zM31 179c27 -21 63 -27 97 -22c-8 -33 -27 -62 -57 -74c-50 -18 -63 47 -40 96zM36 385c-21 0 -38 -9 -50 -26c-4 -5 -1 -14 4 -17l6 -3c7 -4 17 3 16 11c28 21 61 -13 91 -15c22 -1 37 12 36 34c0 8 -10 10 -14 4
c-14 -21 -68 11 -89 12z" />
    <glyph glyph-name="odieresis" unicode="&#xf6;" horiz-adv-x="215" 
d="M66 317c-46 0 -80 -47 -68 -92c-58 -66 -20 -188 59 -174c48 9 80 62 89 110c26 8 50 21 68 40c7 7 -4 18 -11 11c-15 -16 -34 -28 -54 -35c7 55 -6 118 -59 136c-8 3 -16 4 -24 4zM62 306c41 0 84 -50 70 -134c-33 -6 -68 -1 -95 19l9 12c10 4 17 14 13 25
c-10 30 -33 22 -51 7c-4 18 0 38 15 53c11 12 25 18 39 18zM31 179c27 -21 63 -27 97 -22c-8 -33 -27 -62 -57 -74c-50 -18 -63 47 -40 96zM106 388c-1 0 -3 -1 -4 -1c-13 -2 -18 -11 -22 -23c-5 -18 16 -31 30 -20c28 10 17 44 -4 44zM21 386c-9 0 -18 -5 -25 -16
c-10 -16 2 -38 14 -42c19 -11 46 14 39 37c-3 13 -15 21 -28 21z" />
    <glyph glyph-name="divide" unicode="&#xf7;" horiz-adv-x="643" 
d="M537 365c-33 0 -37 -55 4 -56c6 1 10 1 14 5c9 6 11 16 8 25c-1 14 -10 23 -19 25c-2 1 -5 1 -7 1zM585 288c-14 0 -27 -1 -39 -1c-32 -1 -65 -2 -97 -8c-20 -4 -13 -34 6 -32c32 0 65 5 97 8c25 3 58 -1 80 13c4 3 4 8 0 11c-13 8 -30 9 -47 9zM536 215
c-23 0 -39 -25 -32 -45c4 -9 2 -6 8 -14c5 -4 9 -8 18 -8c20 -6 43 22 36 43c-3 7 -4 12 -11 17c-3 3 -11 6 -17 6c0 1 -1 1 -2 1z" />
    <glyph glyph-name="oslash" unicode="&#xf8;" horiz-adv-x="692" 
d="M512 322c-46 0 -80 -48 -68 -92c-58 -66 -20 -189 59 -175c48 9 80 62 89 111c26 7 50 21 68 39c7 7 -4 18 -11 11c-15 -15 -34 -27 -54 -34c7 55 -6 118 -59 136c-8 3 -16 4 -24 4zM508 310c41 0 84 -49 70 -133c-33 -7 -68 -2 -95 19l9 12c10 3 17 13 13 24
c-10 31 -33 23 -51 7c-4 19 0 38 15 54c11 11 25 17 39 17zM477 184c27 -22 63 -28 97 -22c-8 -33 -27 -63 -57 -74c-50 -19 -63 47 -40 96z" />
    <glyph glyph-name="ugrave" unicode="&#xf9;" 
d="M31 329c-6 0 -13 -2 -18 -7c-22 -19 -24 -48 -27 -75c-18 -175 90 -249 171 -121c7 -30 25 -56 57 -65c40 -11 68 22 90 50c25 33 39 60 55 98c2 6 -7 9 -10 4c-13 -23 -90 -162 -123 -108c-21 34 0 139 -1 178c6 27 -39 58 -56 23c-20 -41 -21 -96 -18 -142
c-15 -29 -38 -64 -66 -64c-36 -1 -33 75 -34 99c-2 66 14 82 4 112c-4 12 -14 18 -24 18zM87 459c-5 0 -11 -2 -14 -8c-7 -13 0 -31 5 -44c27 -69 57 -38 52 -23c-6 15 -23 38 -26 56c3 12 -7 20 -17 19z" />
    <glyph glyph-name="uacute" unicode="&#xfa;" 
d="M31 329c-6 0 -13 -2 -18 -7c-22 -19 -24 -48 -27 -75c-18 -175 90 -249 171 -121c7 -30 25 -56 57 -65c40 -11 68 22 90 50c25 33 39 60 55 98c2 6 -7 9 -10 4c-13 -23 -90 -162 -123 -108c-21 34 0 139 -1 178c6 27 -39 58 -56 23c-20 -41 -21 -96 -18 -142
c-15 -29 -38 -64 -66 -64c-36 -1 -33 75 -34 99c-2 66 14 82 4 112c-4 12 -14 18 -24 18zM119 457c-8 1 -15 -4 -15 -14c0 -43 -17 -50 -15 -74c1 -4 3 -8 8 -8c39 0 45 58 36 86c-2 7 -8 10 -14 10z" />
    <glyph glyph-name="ucircumflex" unicode="&#xfb;" 
d="M31 329c-6 0 -13 -2 -18 -7c-22 -19 -24 -48 -27 -75c-18 -175 90 -249 171 -121c7 -30 25 -56 57 -65c40 -11 68 22 90 50c25 33 39 60 55 98c2 6 -7 9 -10 4c-13 -23 -90 -162 -123 -108c-21 34 0 139 -1 178c6 27 -39 58 -56 23c-20 -41 -21 -96 -18 -142
c-15 -29 -38 -64 -66 -64c-36 -1 -33 75 -34 99c-2 66 14 82 4 112c-4 12 -14 18 -24 18zM108 457h-5c-9 -2 -12 -6 -56 -55c-13 -16 9 -39 23 -23c34 40 24 29 32 38c9 -11 16 -23 28 -32c18 -15 51 4 36 28c-11 15 -36 45 -58 44z" />
    <glyph glyph-name="udieresis" unicode="&#xfc;" 
d="M31 329c-6 0 -13 -2 -18 -7c-22 -19 -24 -48 -27 -75c-18 -175 90 -249 171 -121c7 -30 25 -56 57 -65c40 -11 68 22 90 50c25 33 39 60 55 98c2 6 -7 9 -10 4c-13 -23 -90 -162 -123 -108c-21 34 0 139 -1 178c6 27 -39 58 -56 23c-20 -41 -21 -96 -18 -142
c-15 -29 -38 -64 -66 -64c-36 -1 -33 75 -34 99c-2 66 14 82 4 112c-4 12 -14 18 -24 18zM145 414c-1 0 -3 -1 -4 -1c-13 -2 -18 -11 -22 -23c-5 -18 16 -31 30 -20c28 10 17 44 -4 44zM60 412c-9 0 -18 -5 -25 -16c-10 -16 2 -38 14 -42c19 -11 46 14 39 37
c-3 13 -15 21 -28 21z" />
    <glyph glyph-name="yacute" unicode="&#xfd;" horiz-adv-x="340" 
d="M36 339c-3 0 -6 -1 -10 -2c-48 -12 -97 -166 -31 -220c40 -33 90 -4 117 30c17 21 31 44 43 68c3 -32 8 -64 12 -96c-241 -104 -164 -258 -59 -240c68 13 114 82 126 146c7 36 4 72 0 108c45 21 85 31 117 70c6 7 -4 16 -9 9c-30 -37 -67 -46 -110 -65
c-9 74 -15 128 -42 177c-8 14 -27 8 -31 -4c-2 1 -6 -38 -6 -56c-12 -30 -58 -117 -97 -124c-22 -4 -27 9 -28 28c0 16 1 32 3 48c5 27 22 72 25 77c21 10 8 46 -20 46zM169 105c7 -53 9 -112 -19 -157c-24 -40 -93 -69 -120 -14c-21 44 16 92 48 119c27 23 59 38 91 52z
M117 456c-8 1 -15 -4 -15 -14c0 -43 -17 -50 -15 -74c1 -4 3 -8 8 -8c39 0 45 58 36 86c-2 7 -8 10 -14 10z" />
    <glyph glyph-name="thorn" unicode="&#xfe;" horiz-adv-x="636" 
d="M467 398c-10 0 -19 -6 -19 -18c-4 -55 -5 -109 -5 -164c-1 -51 -4 -106 7 -156c4 -16 24 -13 28 0c3 -1 4 39 12 90c26 -26 76 -22 104 6c36 37 55 123 21 167c-37 49 -83 -6 -103 -42c-41 -73 -25 -192 -27 99c0 12 -9 18 -18 18zM572 317c28 -1 13 -91 4 -109
c-7 -14 -18 -30 -35 -33c-13 -3 -29 5 -44 11c9 43 22 98 58 124c7 5 13 7 17 7z" />
    <glyph glyph-name="ydieresis" unicode="&#xff;" horiz-adv-x="340" 
d="M36 339c-3 0 -6 -1 -10 -2c-48 -12 -97 -166 -31 -220c40 -33 90 -4 117 30c17 21 31 44 43 68c3 -32 8 -64 12 -96c-241 -104 -164 -258 -59 -240c68 13 114 82 126 146c7 36 4 72 0 108c45 21 85 31 117 70c6 7 -4 16 -9 9c-30 -37 -67 -46 -110 -65
c-9 74 -15 128 -42 177c-8 14 -27 8 -31 -4c-2 1 -6 -38 -6 -56c-12 -30 -58 -117 -97 -124c-22 -4 -27 9 -28 28c0 16 1 32 3 48c5 27 22 72 25 77c21 10 8 46 -20 46zM169 105c7 -53 9 -112 -19 -157c-24 -40 -93 -69 -120 -14c-21 44 16 92 48 119c27 23 59 38 91 52z
M143 413c-1 0 -3 -1 -4 -1c-13 -2 -18 -11 -22 -23c-5 -18 16 -31 30 -20c28 10 17 44 -4 44zM58 411c-9 0 -18 -5 -25 -16c-10 -16 2 -38 14 -42c19 -11 46 14 39 37c-3 13 -15 21 -28 21z" />
  </font>
</defs>
</svg>
